<?xml version="1.0" encoding="UTF-8"?>
<svg id="Layer_2" data-name="Layer 2" xmlns="http://www.w3.org/2000/svg" viewBox="0 0 42.23 40.17">
  <defs>
    <style>
      .cls-1 {
        fill: #f8f6d4;
      }
    </style>
  </defs>
  <g id="Layer_1-2" data-name="Layer 1">
    <path class="cls-1" d="M42.23,20.08l-4.72-5.35,.69-7.06-6.97-1.56L27.64,0l-6.55,2.83L14.59,0l-3.63,6.14-6.93,1.53,.67,7.1L0,20.08l4.72,5.35-.69,7.06,6.97,1.56,3.59,6.11,6.55-2.84,6.5,2.84,3.63-6.14,6.93-1.53-.67-7.11,4.7-5.31Zm-13.05-3.08l-7.99,9.53c-.91,.96-2.41,1.03-3.4,.15-1.35-1.29-3.34-3.14-4.76-4.34-2.09-2.24,1.12-5.59,3.44-3.47,.82,.75,2.01,1.84,2.83,2.57l6.36-7.81c2.21-2.29,5.71,1.07,3.52,3.38Z"/>
  </g>
</svg>