<?xml version="1.0" encoding="UTF-8"?>
<svg id="Layer_2" data-name="Layer 2" xmlns="http://www.w3.org/2000/svg" viewBox="0 0 180.19 154.44">
  <defs>
    <style>
      .cls-1 {
        fill: #191919;
      }
    </style>
  </defs>
  <g id="Layer_1-2" data-name="Layer 1">
    <g id="Layer_2-2" data-name="Layer 2">
      <g id="Logo_copy" data-name="Logo copy">
        <path class="cls-1" d="M35.05,100.62c-.53-.77-1.12-1.5-1.77-2.17-1.29-1.33-2.76-2.46-4.37-3.38-.34-.19-1.53-.52-1.48-.99,.04-.41,.69-.71,.97-.94,.59-.5,1.13-1.04,1.63-1.63,.99-1.18,1.78-2.51,2.34-3.95,.84-2.14,.86-4.41,.83-6.69-.03-2.71-.96-5.27-2.47-7.53-1.1-1.7-2.55-3.14-4.24-4.24-1.9-1.2-4-1.82-6.18-2.3-1.47-.36-2.96-.61-4.47-.73-2.51-.12-5.03-.29-7.53-.29H.55c-.14-.02-.28,0-.41,.05-.2,.3-.12,.63-.12,.95C0,87.25,0,107.72,0,128.2v.52c-.01,.17,.04,.34,.15,.48,.09,.1,.86,0,1.02,0H12.14c2.52,0,5.08,.13,7.59-.08,4.38-.36,8.85-1.32,12.06-4.55,2.96-2.99,5.1-6.58,5.75-10.78,.68-4.41,.05-9.42-2.5-13.17Zm-23.32-10.79v-12.01c0-.12,.09-.22,.21-.23,0,0,.01,0,.02,0,.85-.06,1.71-.07,2.57-.02,.42,.02,.84,.05,1.26,.09,.86,.07,1.71,.25,2.52,.53,.41,.15,.8,.33,1.18,.55,.51,.31,.96,.71,1.33,1.17,.27,.29,.5,.62,.69,.97,.16,.41,.27,.83,.35,1.26,.12,.58,.17,1.18,.14,1.77,.01,.57-.03,1.13-.13,1.69-.3,1.27-1.01,2.4-2.03,3.22-1.11,.9-2.8,1.32-4.19,1.47-1.14,.08-2.29,.11-3.43,.06h-.28c-.11,0-.2-.08-.21-.19,0,0,0,0,0,0,0-.11,0-.22,0-.34Zm12.02,25.91c-.9,.64-2.08,.93-3.16,1.19-1.17,.28-2.37,.45-3.57,.5-.76,.03-1.54,.12-2.3,.09-.85-.03-1.71-.02-2.56,0-.49,0-.52,0-.52-.5,0-2.5,0-5.01,0-7.51v-7.74c0-.21,.16-.38,.37-.39,.01,0,.02,0,.03,0,1.61-.02,3.23,.05,4.84,.21,.84,.09,1.67,.22,2.49,.39,.42,.07,.84,.17,1.25,.3,1.71,.54,3.21,1.6,4.28,3.05,1.16,1.59,1.38,3.25,1.46,5.16v.23c.15,2-1.01,3.92-2.61,5.05h0Z"/>
        <path class="cls-1" d="M180.09,129.19h-13.24c-.84-1.08-1.56-2.24-2.32-3.38-1.18-1.73-2.31-3.49-3.49-5.22-1.3-1.9-2.53-3.83-3.83-5.71-1.13-1.65-2.22-3.33-3.34-4.98-1.43-2.12-2.88-4.23-4.27-6.38-.35-.55-.74-1.07-1.08-1.63-.08-.12-.16-.24-.33-.2s-.14,.18-.15,.31,0,.25,0,.37v25.7c0,.37,.21,.78-.11,1.12h-11.31c-.15-.16-.24-.37-.24-.59-.01-.19,0-.37,0-.56v-61.06c0-.4-.08-.82,.22-1.16,.17-.05,.35-.06,.52-.04h10.67c.41,.12,.37,.49,.32,.76-.07,.68-.1,1.36-.06,2.05v17.91c-.02,.22,0,.43,.03,.65,.03,.13,.04,.3,.22,.32s.2-.13,.26-.23c.49-.72,1.04-1.41,1.56-2.1,2.08-2.75,4.13-5.52,6.2-8.27,1.59-2.11,3.16-4.22,4.75-6.33,1.09-1.45,2.16-2.93,3.26-4.36,.11-.14,.07-.39,.33-.41h13.18c.28-.02,.31,.15,.26,.36-.04,.15-.12,.29-.23,.4-1.36,1.7-2.62,3.47-3.92,5.21-1.3,1.74-2.61,3.54-3.95,5.3-1.34,1.76-2.6,3.48-3.89,5.23-1.47,1.98-2.95,3.96-4.41,5.95-1.3,1.77-2.6,3.56-3.96,5.3-.13,.15-.25,.32-.36,.49-.15,.21-.14,.49,.02,.69,1.19,1.69,2.29,3.43,3.45,5.14,1.42,2.09,2.76,4.24,4.23,6.3,.07,.1,.13,.21,.18,.33,.67,1.04,1.38,2.06,2.06,3.1,.76,1.15,1.53,2.3,2.3,3.45,1.1,1.59,2.13,3.23,3.22,4.84,2.08,3.06,4.11,6.17,6.18,9.24,.32,.48,.64,.95,.97,1.42,.14,.21,.28,.42,.08,.67Z"/>
        <path class="cls-1" d="M131.86,77.89v-12.72c-7.3,0-14.4,2.43-20.15,6.93L86.18,0,53.35,95.47v-29.07c.01-.22-.07-.44-.23-.59-.08-.02-.15-.03-.23-.03h-10.58c-.11-.02-.22,0-.32,.04-.2,.3-.12,.63-.12,.95v61.94c-.01,.17,.04,.34,.15,.48h27.87c.28-.26,.24-.63,.24-.96v-9.61c0-.16,0-.31-.02-.46-.02-.31-.27-.56-.58-.56-.19-.02-.37,0-.56,0h-15.08c-.49,0-.62-.14-.57-.62,.04-.37,.03-.75,.03-1.12v-5.19L86.25,14.97l21.51,60.75c-5.58,6.02-8.69,13.94-8.68,22.15,0,18.04,14.7,32.71,32.77,32.71v-12.72c-1.37,0-2.74-.14-4.09-.42l-11.42-32.23c3.81-4.65,9.5-7.34,15.51-7.33Zm-10.15,37.22c-8.42-4.9-12.06-15.18-8.6-24.3l8.6,24.3Z"/>
        <path class="cls-1" d="M12.56,142.21c-.4-.55-.96-.97-1.59-1.21-1.32-.53-2.79-.51-4.1,.05-.63,.28-1.21,.69-1.68,1.2-.48,.52-.85,1.13-1.09,1.79-.26,.71-.39,1.46-.38,2.22,0,.79,.12,1.57,.37,2.31,.23,.66,.59,1.28,1.06,1.8,.46,.5,1.02,.9,1.65,1.17,.68,.29,1.42,.43,2.16,.42,.76,.01,1.52-.15,2.2-.49,.62-.3,1.15-.75,1.56-1.3l2.2,1.56c-.67,.85-1.53,1.53-2.51,2-1.09,.49-2.27,.74-3.47,.71-1.14,.01-2.27-.19-3.33-.6-1.97-.75-3.54-2.3-4.32-4.26-.42-1.05-.62-2.17-.61-3.3-.02-1.15,.19-2.29,.63-3.35,.41-.96,1.01-1.83,1.77-2.54,.77-.71,1.67-1.26,2.65-1.61,1.06-.39,2.19-.58,3.32-.57,.52,0,1.04,.05,1.56,.14,.53,.09,1.05,.24,1.56,.44,.49,.19,.96,.44,1.4,.73,.43,.28,.8,.63,1.11,1.04l-2.11,1.67Z"/>
        <path class="cls-1" d="M34.68,146.27c-.01-1.15,.2-2.28,.63-3.35,.39-.96,.97-1.83,1.72-2.54,.75-.71,1.64-1.26,2.62-1.61,1.06-.39,2.18-.58,3.3-.57,1.14-.01,2.27,.18,3.34,.57,.98,.35,1.88,.9,2.64,1.61,.75,.71,1.34,1.58,1.73,2.54,.43,1.06,.64,2.2,.62,3.35,.01,1.13-.2,2.26-.62,3.3-.39,.97-.98,1.84-1.73,2.57-.76,.73-1.65,1.3-2.64,1.68-1.06,.41-2.2,.61-3.34,.6-1.13,.01-2.25-.19-3.3-.6-.98-.38-1.87-.95-2.62-1.69-.74-.73-1.33-1.61-1.72-2.57-.42-1.05-.64-2.17-.62-3.3Zm2.99,0c0,.78,.12,1.55,.38,2.28,.24,.67,.61,1.28,1.09,1.8,.47,.51,1.04,.91,1.68,1.19,.68,.29,1.41,.43,2.15,.43,.74,0,1.48-.14,2.16-.43,.64-.27,1.22-.68,1.69-1.19,.48-.52,.85-1.13,1.09-1.8,.26-.73,.39-1.5,.38-2.28,0-.76-.12-1.51-.38-2.22-.24-.66-.61-1.27-1.08-1.79-.47-.51-1.04-.92-1.68-1.2-.69-.3-1.43-.45-2.18-.44-.75-.01-1.49,.14-2.17,.44-.63,.28-1.2,.69-1.67,1.2-.47,.52-.84,1.13-1.08,1.79-.26,.71-.39,1.46-.38,2.22Z"/>
        <polygon class="cls-1" points="73.03 138.59 82.99 138.59 82.99 140.99 75.77 140.99 75.77 145.22 82.58 145.22 82.58 147.54 75.77 147.54 75.77 154.03 73.03 154.03 73.03 138.59"/>
        <polygon class="cls-1" points="104.61 138.59 114.58 138.59 114.58 140.99 107.36 140.99 107.36 145.22 114.16 145.22 114.16 147.54 107.36 147.54 107.36 154.03 104.61 154.03 104.61 138.59"/>
        <polygon class="cls-1" points="136.19 138.59 146.43 138.59 146.43 140.99 138.94 140.99 138.94 144.92 146.03 144.92 146.03 147.23 138.94 147.23 138.94 151.59 146.82 151.59 146.82 154.03 136.19 154.03 136.19 138.59"/>
        <polygon class="cls-1" points="168.58 138.59 178.81 138.59 178.81 140.99 171.33 140.99 171.33 144.92 178.42 144.92 178.42 147.23 171.33 147.23 171.33 151.59 179.2 151.59 179.2 154.03 168.58 154.03 168.58 138.59"/>
      </g>
    </g>
  </g>
</svg>