<?xml version="1.0" encoding="UTF-8"?>
<svg id="Layer_2" data-name="Layer 2" xmlns="http://www.w3.org/2000/svg" viewBox="0 0 107.71 92.32">
  <defs>
    <style>
      .cls-1 {
        fill: #f8f6d4;
      }
    </style>
  </defs>
  <g id="Layer_1-2" data-name="Layer 1">
    <g id="Layer_2-2" data-name="Layer 2">
      <g id="Logo_copy" data-name="Logo copy">
        <path class="cls-1" d="M20.95,60.15c-.31-.46-.67-.9-1.06-1.3-.77-.79-1.65-1.47-2.61-2.02-.2-.12-.91-.31-.88-.59,.02-.25,.41-.42,.58-.56,.35-.3,.68-.62,.97-.97,.59-.7,1.06-1.5,1.4-2.36,.5-1.28,.51-2.64,.5-4-.02-1.62-.58-3.15-1.48-4.5-.66-1.01-1.52-1.88-2.54-2.54-1.13-.72-2.39-1.09-3.69-1.38-.88-.22-1.77-.36-2.67-.43-1.5-.07-3.01-.18-4.5-.18H.33c-.08-.01-.17,0-.25,.03-.12,.18-.07,.38-.07,.57C0,52.16,0,64.39,0,76.63v.31c0,.1,.02,.2,.09,.29,.05,.06,.52,0,.61,0H7.26c1.51,0,3.04,.08,4.54-.05,2.62-.21,5.29-.79,7.21-2.72,1.77-1.79,3.05-3.93,3.44-6.45,.41-2.63,.03-5.63-1.49-7.87Zm-13.94-6.45v-7.18c0-.07,.05-.13,.12-.14,0,0,0,0,.01,0,.51-.04,1.02-.04,1.53-.01,.25,.01,.5,.03,.75,.06,.51,.04,1.02,.15,1.51,.32,.24,.09,.48,.2,.7,.33,.3,.19,.57,.42,.8,.7,.16,.17,.3,.37,.41,.58,.09,.24,.16,.49,.21,.75,.07,.35,.1,.7,.08,1.06,0,.34-.02,.68-.08,1.01-.18,.76-.6,1.44-1.21,1.92-.66,.54-1.67,.79-2.5,.88-.68,.05-1.37,.06-2.05,.04h-.17c-.07,0-.12-.05-.12-.12,0,0,0,0,0,0,0-.07,0-.13,0-.2Zm7.18,15.49c-.54,.38-1.24,.56-1.89,.71-.7,.17-1.42,.27-2.14,.3-.46,.02-.92,.07-1.38,.06-.51-.02-1.02,0-1.53,0-.29,0-.31,0-.31-.3,0-1.5,0-2.99,0-4.49v-4.63c0-.13,.1-.23,.22-.23,0,0,.01,0,.02,0,.97-.01,1.93,.03,2.89,.12,.5,.05,1,.13,1.49,.23,.25,.04,.5,.1,.74,.18,1.02,.32,1.92,.96,2.56,1.82,.69,.95,.83,1.94,.87,3.08v.14c.09,1.2-.6,2.34-1.56,3.02h0Z"/>
        <path class="cls-1" d="M107.65,77.22h-7.91c-.5-.65-.93-1.34-1.39-2.02-.7-1.03-1.38-2.08-2.09-3.12-.78-1.13-1.51-2.29-2.29-3.41-.68-.99-1.33-1.99-1.99-2.98-.86-1.27-1.72-2.53-2.55-3.81-.21-.33-.44-.64-.65-.97-.05-.07-.1-.15-.2-.12s-.09,.11-.09,.18,0,.15,0,.22v15.36c0,.22,.12,.47-.07,.67h-6.76c-.09-.09-.14-.22-.14-.35,0-.11,0-.22,0-.34V40.04c0-.24-.05-.49,.13-.69,.1-.03,.21-.04,.31-.02h6.38c.25,.07,.22,.29,.19,.46-.04,.41-.06,.82-.04,1.22v10.71c-.01,.13,0,.26,.02,.39,.02,.08,.02,.18,.13,.19s.12-.08,.16-.14c.29-.43,.62-.84,.93-1.26,1.24-1.64,2.47-3.3,3.71-4.94,.95-1.26,1.89-2.52,2.84-3.79,.65-.87,1.29-1.75,1.95-2.61,.06-.08,.04-.23,.2-.24h7.88c.17-.01,.18,.09,.16,.21-.03,.09-.07,.17-.14,.24-.81,1.02-1.56,2.08-2.34,3.12-.78,1.04-1.56,2.12-2.36,3.17s-1.55,2.08-2.33,3.13c-.88,1.18-1.76,2.37-2.64,3.55-.78,1.06-1.55,2.13-2.37,3.17-.08,.09-.15,.19-.22,.29-.09,.13-.08,.29,.01,.41,.71,1.01,1.37,2.05,2.06,3.07,.85,1.25,1.65,2.53,2.53,3.76,.04,.06,.08,.13,.11,.2,.4,.62,.82,1.23,1.23,1.85,.45,.69,.91,1.38,1.37,2.06,.66,.95,1.28,1.93,1.93,2.89,1.24,1.83,2.46,3.69,3.7,5.52,.19,.28,.38,.57,.58,.85,.09,.13,.16,.25,.05,.4Z"/>
        <path class="cls-1" d="M78.82,46.56v-7.6c-4.37,0-8.61,1.45-12.04,4.14L51.51,0,31.89,57.07v-17.38c0-.13-.04-.26-.14-.35-.04-.01-.09-.02-.14-.02h-6.32c-.06-.01-.13,0-.19,.03-.12,.18-.07,.38-.07,.57v37.03c0,.1,.02,.2,.09,.29h16.66c.17-.16,.14-.37,.14-.58v-5.74c0-.09,0-.19-.01-.28-.01-.19-.16-.33-.35-.34-.11,0-.22,0-.33,0h-9.02c-.29,0-.37-.08-.34-.37,.02-.22,.02-.45,.02-.67v-3.1L51.55,8.95l12.86,36.31c-3.34,3.6-5.19,8.33-5.19,13.24,0,10.78,8.79,19.55,19.59,19.55v-7.6c-.82,0-1.64-.08-2.44-.25l-6.83-19.27c2.28-2.78,5.68-4.38,9.27-4.38Zm-6.07,22.25c-5.04-2.93-7.21-9.08-5.14-14.52l5.14,14.52Z"/>
        <path class="cls-1" d="M7.51,85.01c-.24-.33-.57-.58-.95-.72-.79-.32-1.67-.3-2.45,.03-.38,.17-.72,.41-1,.72-.29,.31-.51,.67-.65,1.07-.16,.43-.23,.88-.23,1.33,0,.47,.07,.94,.22,1.38,.14,.4,.35,.76,.63,1.08,.27,.3,.61,.54,.99,.7,.41,.17,.85,.26,1.29,.25,.46,0,.91-.09,1.32-.29,.37-.18,.69-.45,.93-.78l1.32,.93c-.4,.51-.91,.92-1.5,1.19-.65,.29-1.36,.44-2.07,.42-.68,0-1.35-.11-1.99-.36-1.18-.45-2.12-1.37-2.58-2.55-.25-.63-.37-1.3-.36-1.98-.01-.69,.12-1.37,.38-2,.24-.57,.6-1.09,1.06-1.52,.46-.42,1-.75,1.58-.96,.63-.23,1.31-.35,1.98-.34,.31,0,.62,.03,.93,.09,.32,.05,.63,.14,.93,.26,.29,.12,.57,.26,.83,.44,.25,.17,.48,.38,.66,.62l-1.26,1Z"/>
        <path class="cls-1" d="M20.73,87.43c0-.69,.12-1.37,.38-2,.23-.57,.58-1.09,1.03-1.52,.45-.42,.98-.75,1.56-.96,.63-.23,1.3-.35,1.98-.34,.68,0,1.36,.11,1.99,.34,.58,.21,1.12,.54,1.58,.96,.45,.43,.8,.94,1.04,1.52,.26,.64,.38,1.32,.37,2,0,.68-.12,1.35-.37,1.98-.24,.58-.59,1.1-1.04,1.54-.45,.44-.99,.78-1.58,1-.64,.24-1.31,.37-1.99,.36-.68,0-1.35-.11-1.98-.36-.59-.23-1.12-.57-1.57-1.01-.44-.44-.79-.96-1.03-1.54-.25-.63-.38-1.3-.37-1.97Zm1.79,0c0,.46,.07,.93,.23,1.36,.14,.4,.36,.76,.65,1.08,.28,.3,.62,.55,1,.71,.41,.17,.84,.26,1.28,.25,.44,0,.88-.08,1.29-.25,.38-.16,.73-.41,1.01-.71,.29-.31,.51-.68,.65-1.08,.16-.44,.23-.9,.23-1.36,0-.45-.07-.9-.23-1.33-.14-.39-.36-.76-.65-1.07-.28-.31-.62-.55-1-.72-.41-.18-.86-.27-1.3-.26-.45,0-.89,.08-1.3,.26-.38,.17-.72,.41-1,.72-.28,.31-.5,.67-.65,1.07-.16,.43-.23,.88-.23,1.33Z"/>
        <path class="cls-1" d="M43.65,82.85h5.96v1.43h-4.31v2.53h4.07v1.38h-4.07v3.88h-1.64v-9.22Z"/>
        <path class="cls-1" d="M62.53,82.85h5.96v1.43h-4.31v2.53h4.07v1.38h-4.07v3.88h-1.64v-9.22Z"/>
        <path class="cls-1" d="M81.41,82.85h6.12v1.43h-4.48v2.35h4.24v1.38h-4.24v2.61h4.71v1.46h-6.35v-9.23Z"/>
        <path class="cls-1" d="M100.77,82.85h6.11v1.43h-4.47v2.35h4.24v1.38h-4.24v2.61h4.71v1.46h-6.35v-9.23Z"/>
      </g>
    </g>
  </g>
</svg>