<?xml version="1.0" encoding="UTF-8"?>
<svg id="Layer_2" data-name="Layer 2" xmlns="http://www.w3.org/2000/svg" xmlns:xlink="http://www.w3.org/1999/xlink" viewBox="0 0 459.12 597.91">
  <defs>
    <style>
      .cls-1 {
        fill: none;
      }

      .cls-2 {
        opacity: .17;
      }

      .cls-3 {
        fill: #f8f6d4;
      }

      .cls-4 {
        fill: #191919;
      }

      .cls-5 {
        fill: #f7ac1c;
      }

      .cls-6 {
        clip-path: url(#clippath);
      }
    </style>
    <clipPath id="clippath">
      <rect class="cls-1" x="0" width="459.12" height="597.91" rx="39.67" ry="39.67"/>
    </clipPath>
  </defs>
  <g id="Layer_1-2" data-name="Layer 1">
    <g>
      <rect class="cls-5" width="459.12" height="597.91" rx="39.67" ry="39.67"/>
      <g class="cls-6">
        <g class="cls-2">
          <g id="Layer_2-2" data-name="Layer 2">
            <g id="Logo_copy" data-name="Logo copy">
              <path class="cls-3" d="M50.4,76.01c.65-3.4.99-6.85,1.04-10.31.1-6.84-.79-13.67-2.63-20.26-.39-1.41-2.65-5.35-1.28-6.45,1.19-.97,3.66-.05,5,.07,2.84.24,5.69.24,8.53,0,5.67-.5,11.22-1.93,16.43-4.23,7.78-3.42,13.77-9.31,19.64-15.33,7-7.19,11.25-16.31,13.21-26.16,1.54-7.32,1.54-14.88-.02-22.2-1.82-8.1-5.72-15.21-10.16-22.17-2.89-4.79-6.16-9.33-9.8-13.58-6.25-6.89-12.4-13.91-18.94-20.44-6.77-6.76-13.53-13.51-20.3-20.26-.3-.42-.72-.75-1.2-.95-1.29.26-1.98,1.33-2.82,2.17C-6.4-50.54-59.9,3.03-113.4,56.62l-1.36,1.36c-.48.42-.79,1-.86,1.64-.02.5,2.26,2.26,2.66,2.66l28.73,28.68c6.61,6.59,12.96,13.6,20.07,19.64,12.39,10.51,26.61,19.69,43.45,19.59,15.56-.1,30.54-3.88,43.24-13.2,13.29-9.75,24.73-24.53,27.86-40.99ZM17.54-13.17l30.53-30.58.85-.86c.3-.33.81-.36,1.14-.06.02.02.03.03.05.05,2.39,2.08,4.65,4.3,6.76,6.65,1.05,1.15,2.06,2.33,3.04,3.53,2.06,2.44,3.81,5.12,5.21,7.99.69,1.45,1.23,2.97,1.63,4.52.51,2.14.66,4.34.44,6.53-.05,1.48-.3,2.94-.74,4.35-.65,1.47-1.44,2.88-2.37,4.2-1.21,1.84-2.65,3.52-4.28,4.99-1.44,1.51-3.03,2.88-4.74,4.08-4.09,2.55-8.92,3.66-13.72,3.13-5.25-.55-10.79-3.85-14.81-7.08-3.21-2.77-6.27-5.71-9.16-8.8l-.73-.73c-.3-.28-.31-.75-.03-1.05,0,0,0,0,.01-.01.28-.29.59-.55.9-.86ZM-18.7,86.05c-4.03-.69-7.88-2.98-11.38-5.12-3.81-2.32-7.38-5.02-10.65-8.04-2.07-1.92-4.34-3.7-6.27-5.77-2.14-2.31-4.43-4.5-6.71-6.7-1.27-1.27-1.36-1.36-.04-2.68,6.54-6.56,13.09-13.11,19.63-19.67L-14.63,18.54l.73-.73c.54-.56,1.43-.57,1.98-.03.03.03.06.06.08.09C-7.56,22.03-3.52,26.43.28,31.04c1.96,2.43,3.81,4.93,5.52,7.53.91,1.3,1.74,2.64,2.49,4.03,3.08,5.88,4.21,12.59,3.25,19.16-1.13,7.19-4.88,12.12-9.65,17.32l-.59.59c-4.86,5.63-12.89,7.62-20.03,6.41l.03-.03Z"/>
              <path class="cls-3" d="M355.38,529.74l-34.66-34.6c.63-5.01,1.78-9.94,2.75-14.89,1.43-7.6,3.06-15.16,4.49-22.77,1.55-8.35,3.39-16.64,4.9-24.96,1.34-7.28,2.89-14.5,4.29-21.76,1.79-9.3,3.53-18.59,5.48-27.85.5-2.35.85-4.74,1.43-7.08.13-.52.21-1.07-.33-1.38-.54-.31-.86.11-1.2.42-.35.31-.64.65-.97.97-22.39,22.43-44.77,44.85-67.16,67.28-.96.96-1.49,2.58-3.22,2.62l-29.59-29.54c.01-.81.34-1.59.92-2.16.45-.52.98-.98,1.47-1.47,53.18-53.28,106.36-106.55,159.55-159.83,1.04-1.04,1.93-2.34,3.61-2.46.57.31,1.07.74,1.45,1.26,9.31,9.29,18.62,18.59,27.93,27.88.75,1.39-.3,2.23-1.14,2.85-1.97,1.59-3.82,3.32-5.52,5.19-15.6,15.63-31.2,31.26-46.81,46.89-.61.52-1.16,1.11-1.63,1.77-.26.41-.68.88-.28,1.41s.86.18,1.28.08c3.16-.61,6.39-.97,9.57-1.43,12.61-1.76,25.23-3.66,37.85-5.45,9.66-1.36,19.32-2.79,28.97-4.17,6.66-.95,13.29-2.02,19.94-2.9.64-.08,1.21-.84,1.92-.2l34.51,34.45c.79.66.43,1.19-.26,1.62-.51.28-1.07.43-1.64.46-8,.9-15.93,2.25-23.88,3.41-7.95,1.15-16.08,2.47-24.19,3.57-8.11,1.11-15.9,2.34-23.86,3.51-9.03,1.33-18.06,2.67-27.09,4.03-8.03,1.25-16.09,2.53-24.21,3.53-.75.06-1.49.17-2.22.32-.93.16-1.64.93-1.74,1.87-1.3,7.52-2.98,14.97-4.41,22.48-1.74,9.19-3.85,18.3-5.37,27.54-.08.45-.21.9-.39,1.32-.97,4.46-1.79,9-2.7,13.49-1.02,5-2.02,10.01-2.98,15.03-1.28,7.06-2.87,14.04-4.2,21.09-2.56,13.44-5.36,26.88-7.97,40.34-.4,2.08-.82,4.16-1.16,6.25-.18.92-.38,1.82-1.55,1.96Z"/>
              <path class="cls-3" d="M363.18,269.44l33.24-33.3c-19.09-19.1-44.04-31.25-70.85-34.51l121.55-255.41L111.77,110.34l74.25-74.38c.57-.57,1.14-1.14,1.71-1.71.61-.54.96-1.32.95-2.13-.14-.25-.32-.48-.54-.67l-27.69-27.64c-.23-.33-.56-.58-.94-.71-1.3.27-1.98,1.33-2.82,2.17C103.2,58.86,49.7,112.45-3.79,166.04l-1.36,1.36c-.48.42-.79,1-.86,1.64l72.94,72.81c1.41.05,2.27-1.01,3.15-1.89,8.37-8.39,16.74-16.77,25.1-25.14.42-.39.81-.82,1.16-1.27.77-.86.74-2.16-.05-2.99-.45-.53-.97-.97-1.46-1.46l-28.15-28.1c-3.78-3.77-7.56-7.54-11.33-11.31-1.28-1.28-1.25-1.97.13-3.1,1.07-.88,2.04-1.86,3.01-2.84l13.57-13.59L408.18-14.41l-102.42,215.23c-30.36,1.18-59.15,13.79-80.6,35.31-47.13,47.22-46.99,124.04.32,171.26l33.24-33.3c-3.6-3.59-6.82-7.54-9.6-11.78l54.32-114.21c22.11-2.2,44.04,5.63,59.75,21.35ZM239.37,340.33c-9.24-34.85,8.09-71.26,40.96-86.07l-40.96,86.07Z"/>
              <path class="cls-3" d="M50.58,274.63l26.09,26.04-6.27,6.28-18.89-18.86-11.05,11.07,17.81,17.78-6.04,6.05-17.81-17.78-16.96,16.99-7.2-7.18,40.32-40.39Z"/>
              <path class="cls-3" d="M133.25,357.16l26.08,26.03-6.27,6.28-18.89-18.86-11.05,11.07,17.81,17.78-6.04,6.05-17.81-17.78-16.96,16.99-7.19-7.18,40.32-40.39Z"/>
              <path class="cls-3" d="M215.92,439.68l26.79,26.74-6.27,6.28-19.6-19.56-10.26,10.27,18.55,18.52-6.04,6.05-18.55-18.52-11.4,11.42,20.61,20.57-6.38,6.39-27.8-27.75,40.34-40.41Z"/>
              <path class="cls-3" d="M300.7,524.31l26.77,26.72-6.27,6.28-19.58-19.54-10.26,10.27,18.55,18.52-6.04,6.05-18.55-18.52-11.4,11.42,20.6,20.57-6.38,6.39-27.79-27.74,40.34-40.41Z"/>
            </g>
          </g>
        </g>
      </g>
      <g>
        <path class="cls-4" d="M315.59,345.43c.27.41.4.85.4,1.32,0,.37-.09.69-.27.96-.23.33-.5.55-.83.68-.33.12-.7.19-1.11.19h-.62c-.44,0-.84-.07-1.19-.2-.35-.13-.64-.28-.85-.46l.55-1.04c.19.12.39.22.61.3.22.09.52.13.88.13h.61c.28,0,.5-.03.67-.08.17-.05.29-.14.38-.27.05-.08.08-.17.08-.27,0-.16-.08-.37-.23-.61l-.19-.29c-.74-1.14-1.28-1.95-1.6-2.42l.94-.7,1.78,2.76Z"/>
        <path class="cls-4" d="M319.56,350.09c.28-.12.48-.3.59-.54.11-.25.16-.58.16-1h-1.19c-.68,0-1.23-.2-1.64-.61-.41-.41-.62-.97-.62-1.7,0-.5.1-.95.29-1.36.19-.41.46-.72.8-.95.34-.23.73-.35,1.16-.35.47,0,.88.11,1.22.33s.62.53.81.94c.19.4.29.86.29,1.39v2.29c0,.91-.25,1.64-.74,2.18-.49.54-1.28.81-2.35.81h-1.3v-1.26h1.3c.53,0,.94-.06,1.22-.18ZM318.24,347.05c.19.17.48.25.89.25h1.19v-1.08c0-.44-.1-.79-.29-1.04-.2-.25-.5-.37-.91-.37-.37,0-.66.13-.86.38-.2.25-.3.59-.3,1.02,0,.39.09.67.28.84Z"/>
        <path class="cls-4" d="M327.06,345.35l.1.23c.3.65.56,1.1.78,1.35.22.25.5.38.83.38h.2l.06.67-.06.6h-.2c-.34,0-.65-.07-.92-.22-.27-.15-.53-.37-.76-.66-.44.59-1.09.88-1.97.88h-.6c-.75,0-1.42-.23-2.02-.68l.55-1.04s.1.05.24.14.33.16.55.22c.22.06.45.09.68.09h.6c.27,0,.5-.03.67-.08.18-.05.31-.15.42-.29.06-.09.09-.18.09-.29,0-.17-.08-.43-.25-.76l-1.24-2.69,1.01-.54,1.24,2.69Z"/>
        <path class="cls-4" d="M334.83,348.29c-.33-.19-.56-.47-.7-.85-.66.37-1.29.65-1.9.84-.61.2-1.27.29-1.99.29h-1.44v-1.26h1.44c.76,0,1.44-.12,2.06-.35.62-.23,1.34-.59,2.17-1.08-1.71-.68-2.72-1.02-3.03-1.02-.21,0-.38.05-.5.15s-.24.3-.35.58l-1.03-.33c.19-.57.44-.99.77-1.26.32-.27.69-.4,1.11-.4.29,0,.74.11,1.35.33.61.22,1.47.56,2.57,1.02l.22.09.23,1.35-.88.55c.23.23.56.35,1,.35h.99l.08.62-.08.64h-.97c-.42,0-.8-.1-1.12-.29Z"/>
        <path class="cls-4" d="M336.8,347.31h.32c.34,0,.55-.16.63-.49l.35-1.26c.17-.63.44-1.12.82-1.47s.83-.53,1.36-.53c.42,0,.8.12,1.12.36.33.24.58.56.76.98.18.41.27.87.27,1.36,0,.6-.09,1.09-.27,1.48-.18.39-.41.67-.68.84-.28.17-.57.26-.88.26-.29,0-.58-.06-.88-.17-.3-.11-.75-.32-1.35-.63-.16.17-.35.31-.57.4-.22.1-.44.15-.66.15h-.33v-1.26ZM339.97,347.44c.23.09.45.13.64.13.24,0,.43-.1.56-.29.13-.19.19-.54.19-1.04,0-.46-.1-.82-.29-1.07-.19-.25-.46-.38-.8-.38-.26,0-.48.09-.68.27-.19.18-.34.46-.43.83l-.28,1.04c.49.25.85.42,1.09.5Z"/>
        <path class="cls-4" d="M346.25,348.28c-.34-.2-.6-.45-.79-.78-.19-.32-.28-.68-.28-1.07,0-.07,0-.18.02-.34.02-.16.07-.43.15-.81.08-.37.15-.7.21-.98l1.03.27c-.21.88-.32,1.44-.34,1.69,0,.04-.01.09-.01.15,0,.28.1.5.3.66.2.16.49.24.87.24h5.04c.36,0,.63-.09.81-.28.18-.19.27-.42.27-.69,0-.29-.05-.69-.16-1.21-.11-.51-.17-.81-.18-.88l1.05-.27c.26,1.09.39,1.89.39,2.39,0,.35-.08.7-.25,1.04-.17.34-.41.62-.73.84-.32.22-.7.33-1.15.33h-5.09c-.44,0-.83-.1-1.16-.29ZM348.25,343.35h1.24v1.24h-1.24v-1.24ZM350.37,343.35h1.25v1.24h-1.25v-1.24Z"/>
        <path class="cls-4" d="M360.07,345.35l.1.23c.3.65.56,1.1.78,1.35.22.25.5.38.83.38h.2l.06.67-.06.6h-.2c-.34,0-.65-.07-.92-.22-.27-.15-.53-.37-.76-.66-.44.59-1.09.88-1.97.88h-.6c-.75,0-1.42-.23-2.02-.68l.55-1.04s.1.05.24.14.33.16.55.22c.22.06.45.09.68.09h.6c.27,0,.5-.03.67-.08.18-.05.31-.15.42-.29.06-.09.09-.18.09-.29,0-.17-.08-.43-.25-.76l-1.24-2.69,1.01-.54,1.24,2.69Z"/>
        <path class="cls-4" d="M361.86,347.31h.32c.34,0,.55-.16.63-.49l.35-1.26c.17-.63.44-1.12.82-1.47s.83-.53,1.36-.53c.42,0,.8.12,1.12.36.33.24.58.56.76.98.18.41.27.87.27,1.36,0,.6-.09,1.09-.27,1.48-.18.39-.41.67-.68.84-.28.17-.57.26-.88.26-.29,0-.58-.06-.88-.17-.3-.11-.75-.32-1.35-.63-.16.17-.35.31-.57.4-.22.1-.44.15-.66.15h-.33v-1.26ZM365.03,347.44c.23.09.45.13.64.13.24,0,.43-.1.56-.29.13-.19.19-.54.19-1.04,0-.46-.1-.82-.29-1.07-.19-.25-.46-.38-.8-.38-.26,0-.48.09-.68.27-.19.18-.34.46-.43.83l-.28,1.04c.49.25.85.42,1.09.5Z"/>
        <path class="cls-4" d="M371.33,348.03c0,.69.17,1.23.5,1.63s.84.6,1.52.6h1.18c.69,0,1.17-.1,1.46-.3s.45-.53.48-.99v-.08c0-.06-.01-.11-.04-.13s-.09-.05-.18-.08l-2.53-.68c-.12-.36-.18-.73-.18-1.12,0-.41.07-.8.21-1.16.14-.36.32-.68.56-.95.3-.34.65-.59,1.05-.78.39-.18.81-.27,1.23-.27.21,0,.43.02.65.05s.41.07.57.12l-.26,1.18c-.31-.09-.65-.12-1.02-.09-.56,0-1.03.21-1.39.62-.2.2-.33.42-.42.64s-.11.47-.08.73l2.01.55c.33.1.57.25.71.46.14.2.21.48.21.84,0,.86-.27,1.53-.8,2.01-.53.48-1.28.72-2.26.72h-1.18c-.64,0-1.2-.16-1.67-.47-.47-.32-.83-.74-1.08-1.28-.25-.53-.37-1.11-.37-1.74,0-.44.07-.92.22-1.45.15-.53.34-1.04.56-1.54l.99.51c-.45.99-.68,1.81-.68,2.46Z"/>
        <path class="cls-4" d="M379.15,340.91h1.1v7.67s-1.09,0-1.09,0v-7.67Z"/>
        <path class="cls-4" d="M383.51,344.87v1.67c0,.28.07.48.21.6.14.12.36.18.67.18h.15l.07.64-.07.62h-.15c-.36,0-.65-.09-.88-.28-.02,1.04-.31,1.84-.85,2.39-.55.56-1.32.84-2.33.84h-.74v-1.26h.74c.51,0,.91-.07,1.22-.2.3-.14.52-.36.66-.66.14-.3.2-.71.2-1.23v-3.3h1.1Z"/>
        <path class="cls-4" d="M384.43,347.31h1.23c.33,0,.57-.07.73-.2.16-.14.23-.33.23-.57,0-.21-.04-.52-.11-.92-.07-.41-.15-.8-.25-1.19l1.06-.27c.09.39.18.82.26,1.3.08.48.12.85.12,1.12,0,.34-.08.67-.23.97-.16.3-.39.55-.69.74-.3.19-.67.29-1.09.29h-1.28v-1.26ZM385.23,350.24h1.3v1.29h-1.3v-1.29Z"/>
      </g>
      <g>
        <path class="cls-4" d="M71.55,192.46c10.8-18.96,25.78-36.48,44.94-52.59l-12.54-8.56,29.66-40.05c23.03,17.12,42.85,35.06,59.46,53.81,16.61,18.75,29.3,37.2,38.06,55.34,8.76,18.14,13.15,34.85,13.15,50.14,0,13.45-2.7,25.17-8.1,35.16-5.4,9.99-12.74,17.68-22.01,23.08-9.28,5.4-19.52,8.1-30.73,8.1-12.43,0-22.83-4.48-31.18-13.45-10.39,8.77-22.93,13.15-37.61,13.15-10.6,0-20.44-2.8-29.5-8.41-9.07-5.6-16.31-13.65-21.71-24.15-5.4-10.5-8.1-22.67-8.1-36.53,0-17.73,5.4-36.08,16.2-55.03ZM174.58,253.6c0,4.69-.21,8.15-.61,10.39,3.06,2.65,6.93,3.97,11.62,3.97,3.87,0,7.34-1.48,10.39-4.43,3.06-2.95,4.59-7.39,4.59-13.3,0-11.82-4.18-24.86-12.54-39.13-8.36-14.26-20.89-29.04-37.6-44.33-16.72,13.05-29.2,26.29-37.45,39.74-8.25,13.45-12.38,26.4-12.38,38.83,0,7.14,1.58,12.59,4.74,16.36,3.16,3.77,7.29,5.66,12.38,5.66,4.48-.2,8.25-1.93,11.31-5.2,3.06-3.26,4.59-7.74,4.59-13.45,0-1.02-.21-3.16-.61-6.42l39.74-6.42c1.22,6.11,1.83,12.03,1.83,17.73Z"/>
        <path class="cls-4" d="M287.6,105.94v45.86h-47.39v-45.86h47.39ZM332.54,87.9h48.92l-88.97,234.49h-48.31l88.36-234.49ZM340.49,262.47h47.39v45.86h-47.39v-45.86Z"/>
      </g>
      <g>
        <g>
          <path class="cls-4" d="M80.67,381.27c.76.81,1.41,1.5,1.95,2.08,3.67,4.03,6.39,7.12,8.16,9.27,1.77,2.15,3.13,4.25,4.1,6.31.96,2.06,1.44,4.25,1.44,6.58,0,2.78-.72,5.33-2.15,7.65-1.43,2.33-3.37,4.19-5.81,5.57-2.44,1.39-5.11,2.08-8.02,2.08s-5.65-.69-8.09-2.08c-2.44-1.39-4.38-3.24-5.81-5.57-1.43-2.33-2.15-4.88-2.15-7.65,0-3.18.75-6.05,2.25-8.63,1.5-2.57,3.75-5.45,6.75-8.63l-2.62-2.89,7.39-6.98c.98,1.12,1.86,2.08,2.62,2.89ZM76.31,407.66c.85,1.03,2.19,1.54,4.03,1.54s3.11-.51,3.96-1.54c.85-1.03,1.28-2.19,1.28-3.49,0-.85-.37-1.85-1.11-2.99-.74-1.14-2.14-2.88-4.2-5.2-2.01,2.15-3.39,3.77-4.13,4.87-.74,1.1-1.11,2.2-1.11,3.32,0,1.3.42,2.46,1.28,3.49Z"/>
          <path class="cls-4" d="M117.93,396.44v9.87c0,.72.21,1.19.64,1.41.43.22,1.13.34,2.12.34h1.68l.4,6.11-.4,5.98h-1.68c-1.12,0-2.13-.25-3.02-.74-.67,5.55-2.74,9.88-6.21,12.99-3.47,3.11-8.13,4.67-14,4.67h-4.23v-12.08h4.23c2.69,0,4.71-.26,6.08-.77,1.36-.51,2.32-1.44,2.85-2.79.54-1.34.81-3.36.81-6.04v-18.93h10.74ZM102.42,380.27h17.32v8.86h-17.32v-8.86ZM106.92,370.6h8.46v7.18h-8.46v-7.18Z"/>
          <path class="cls-4" d="M121.63,408.06h9.67c3.22,0,4.72-1.1,4.5-3.29-.22-2.55-.74-6.04-1.54-10.47l10-2.48c1.52,6.36,2.28,11.06,2.28,14.1,0,2.46-.53,4.78-1.58,6.95-1.05,2.17-2.63,3.93-4.73,5.27-2.1,1.34-4.7,2.01-7.79,2.01h-10.81v-12.08ZM125.05,426.99h17.19v8.86h-17.19v-8.86Z"/>
          <path class="cls-4" d="M167.24,424.51c1.23-.31,2.1-.85,2.62-1.61.51-.76.82-1.93.91-3.49h-4.57c-4.61,0-8.21-1.33-10.81-3.99-2.6-2.66-3.89-6.37-3.89-11.11,0-3.49.63-6.55,1.88-9.16,1.25-2.62,2.99-4.63,5.2-6.04s4.73-2.12,7.55-2.12c3.04,0,5.73.71,8.06,2.12,2.33,1.41,4.14,3.42,5.44,6.04,1.3,2.62,1.95,5.67,1.95,9.16v13.16c0,5.82-1.6,10.54-4.8,14.17-3.2,3.63-8.22,5.44-15.07,5.44h-8.59v-12.08h8.59c2.46,0,4.31-.16,5.54-.47ZM166.2,407.99h4.63v-4.03c0-1.83-.34-3.27-1.01-4.3-.67-1.03-1.9-1.54-3.69-1.54-1.57,0-2.71.52-3.42,1.54-.72,1.03-1.07,2.33-1.07,3.89,0,2.95,1.52,4.43,4.56,4.43Z"/>
          <path class="cls-4" d="M216.49,404.84c-.31-1.21-.47-2.39-.47-3.56,0-2.37.66-4.72,1.98-7.05,1.32-2.33,3.14-4.23,5.47-5.71,2.33-1.48,4.92-2.22,7.79-2.22s5.31.74,7.62,2.22c2.31,1.48,4.12,3.37,5.44,5.67,1.32,2.31,1.98,4.64,1.98,7.02,0,1.16-.17,2.36-.5,3.59-.34,1.23-.8,2.32-1.38,3.26h6.44l.67,6.04-.67,6.04h-5.37c-2.15,0-4.49-.24-7.02-.7-2.53-.47-5-1.15-7.42-2.05-1.93.72-3.83,1.25-5.71,1.61-1.88.36-4.67.64-8.36.84-3.69.2-8.9.3-15.61.3-3.04,0-5.66-.67-7.86-2.01-2.19-1.34-3.86-3.13-5-5.37-1.14-2.24-1.71-4.68-1.71-7.32,0-1.39.16-2.71.47-3.96.27-1.25.66-2.96,1.17-5.14.51-2.17.97-4.11,1.38-5.81l9.8,2.42-.81,3.36c-1.07,4.39-1.61,7.05-1.61,7.99,0,1.12.37,2.03,1.11,2.72.74.69,1.76,1.04,3.05,1.04h16.45c-.58-.94-1.03-2.01-1.34-3.22ZM225.95,372.28h10.41v10.07h-10.41v-10.07ZM227.94,406.21c.96.96,2.02,1.58,3.19,1.85,1.12-.22,2.21-.84,3.29-1.85,1.07-1.01,1.61-2.16,1.61-3.46s-.47-2.42-1.41-3.36c-.94-.94-2.06-1.41-3.36-1.41s-2.42.47-3.36,1.41c-.94.94-1.41,2.06-1.41,3.36s.48,2.5,1.44,3.46Z"/>
          <path class="cls-4" d="M246.57,426.99h17.19v8.86h-17.19v-8.86ZM273.02,396.44v9.87c0,.72.21,1.19.64,1.41.43.22,1.13.34,2.12.34h3.76l.47,6.38-.47,5.71h-3.76c-1.39,0-2.82-.24-4.3-.7-1.48-.47-2.84-1.18-4.09-2.12-1.25.9-2.66,1.59-4.23,2.08-1.57.49-3.16.74-4.77.74h-8.06v-12.08h8.06c1.57,0,2.61-.11,3.12-.34.51-.22.77-.69.77-1.41v-9.87h10.74Z"/>
          <path class="cls-4" d="M278.86,408.06h6.38c-.58-.94-1.03-2.01-1.34-3.22s-.47-2.39-.47-3.56c0-2.37.66-4.72,1.98-7.05,1.32-2.33,3.14-4.23,5.47-5.71,2.33-1.48,4.92-2.22,7.79-2.22s5.31.74,7.62,2.22c2.31,1.48,4.12,3.37,5.44,5.67,1.32,2.31,1.98,4.64,1.98,7.02,0,1.16-.17,2.36-.5,3.59-.34,1.23-.79,2.32-1.38,3.26h6.44l.67,6.04-.67,6.04h-5.37c-2.15,0-4.49-.24-7.02-.7-2.53-.47-5-1.15-7.42-2.05-2.42.9-4.88,1.58-7.38,2.05-2.51.47-4.79.7-6.85.7h-5.37v-12.08ZM293.43,372.21h10.41v10.07h-10.41v-10.07ZM295.34,405.68c.96.96,2.02,1.58,3.19,1.85,1.12-.22,2.22-.84,3.29-1.85,1.07-1.01,1.61-2.16,1.61-3.46s-.47-2.42-1.41-3.36c-.94-.94-2.06-1.41-3.36-1.41s-2.42.47-3.36,1.41c-.94.94-1.41,2.06-1.41,3.36s.48,2.5,1.44,3.46Z"/>
          <path class="cls-4" d="M355.8,418.43c-2.01-1.14-3.69-2.79-5.04-4.93-4.12,2.15-8.24,3.79-12.35,4.93s-8.5,1.71-13.16,1.71h-7.92v-12.08h7.92c7.88,0,15.19-1.5,21.95-4.5-9-2.69-14.03-4.03-15.11-4.03-1.39,0-2.48,1.03-3.29,3.09l-9.13-2.89c1.03-3.71,2.62-6.63,4.77-8.76,2.15-2.13,4.7-3.19,7.65-3.19,3.49,0,11.79,2.71,24.91,8.12l1.07,11.35c1.83.54,3.45.81,4.83.81h1.75l.67,5.84-.67,6.24h-1.34c-3,0-5.5-.57-7.52-1.71ZM327.26,372.28h10.41v10.07h-10.41v-10.07Z"/>
          <path class="cls-4" d="M363.58,408.06h6.31c3.22,0,4.72-1.1,4.5-3.29-.22-2.55-.74-6.04-1.54-10.47l10-2.48c1.52,6.36,2.28,11.06,2.28,14.1,0,2.46-.53,4.78-1.58,6.95-1.05,2.17-2.63,3.93-4.73,5.27-2.1,1.34-4.7,2.01-7.79,2.01h-7.45v-12.08ZM367.14,375.83h17.19v8.86h-17.19v-8.86Z"/>
        </g>
        <g>
          <path class="cls-4" d="M171.52,466.4c-.85,0-1.5.29-1.93.87-.44.58-.65,1.33-.65,2.24,0,.85.21,1.48.62,1.88.41.41,1.08.61,1.99.61h2.68v-2.37c0-2.16-.9-3.24-2.71-3.24Z"/>
          <path class="cls-4" d="M374.03,449.01H76.16c-10.32,0-18.68,8.36-18.68,18.68v5.07c0,10.32,8.36,18.68,18.68,18.68h297.87c10.32,0,18.68-8.36,18.68-18.68v-5.07c0-10.32-8.36-18.68-18.68-18.68ZM300.11,455.66h4.14v4.05h-4.14v-4.05ZM92.15,461.54h3.71v3.74h-3.71v-3.74ZM86.3,461.54h3.71v3.74h-3.71v-3.74ZM108.01,484.06h-3.71v-3.74h3.71v3.74ZM113.86,484.06h-3.74v-3.74h3.74v3.74ZM115.29,473.5c-.46.89-1.15,1.62-2.07,2.18-.92.56-2.06.84-3.41.84h-4.36c-.66,0-1.34-.13-2.04-.39-.7-.26-1.31-.66-1.85-1.2-.48.54-1.08.94-1.81,1.2-.73.26-1.53.39-2.4.39h-13.55c-1.29,0-2.41-.29-3.36-.86-.96-.57-1.69-1.33-2.2-2.29-.51-.96-.76-1.99-.76-3.11,0-.5.04-.96.13-1.37.1-.58.24-1.28.4-2.09s.32-1.52.47-2.12l3.64.9-.22,1c-.42,1.62-.62,2.74-.62,3.36s.22,1.15.65,1.53c.44.37,1.06.56,1.87.56h13.55c.85,0,1.45-.12,1.81-.36.35-.24.53-.65.53-1.23v-4.36h3.99v4.52c0,.54.14.91.42,1.12.28.21.73.31,1.36.31h4.05c.93,0,1.6-.16,1.99-.48.39-.32.57-.78.53-1.39-.1-1.29-.37-3.01-.81-5.17l3.74-.93c.25,1.1.48,2.27.7,3.52s.33,2.25.33,3.02c0,1.04-.23,2-.69,2.9ZM157.25,484.34h-4.14v-4.05h4.14v4.05ZM162.31,473.49c-.45.9-1.12,1.63-2.02,2.2-.9.56-1.99.84-3.25.84h-5.11c-.91,0-1.72-.17-2.43-.5-.71-.33-1.25-.76-1.62-1.28-.35.5-.91.92-1.68,1.26s-1.52.51-2.24.51c-1.54,0-2.85-.59-3.92-1.78-.42.52-.98.95-1.68,1.28-.71.33-1.47.5-2.31.5-.71,0-1.45-.17-2.23-.51s-1.33-.76-1.67-1.26c-.37.52-.92.95-1.64,1.28-.72.33-1.52.5-2.41.5h-2.93c-2.18,0-3.78-.63-4.81-1.9-1.03-1.27-1.54-2.97-1.54-5.11v-13.8h3.96v13.8c0,.79.05,1.35.14,1.68.09.33.3.56.62.67.32.11.87.17,1.63.17h3.08c.73,0,1.25-.14,1.57-.44.32-.29.48-.78.48-1.46v-4.05h3.96v3.99c0,1.31.63,1.96,1.9,1.96s1.93-.65,1.93-1.96l-.03-3.99h3.96v3.99c0,1.27.63,1.92,1.9,1.96.6-.02,1.06-.19,1.37-.5.31-.31.47-.8.47-1.46v-3.99h3.96v4.05c0,.69.16,1.17.47,1.46.31.29.84.44,1.59.44h4.95c1.6,0,2.37-.62,2.31-1.87-.06-.91-.33-2.64-.81-5.17l3.71-.93c.71,3.05,1.06,5.23,1.06,6.54,0,1.02-.22,1.98-.67,2.88ZM178.18,475.84c0,2.57-.7,4.64-2.1,6.2-1.4,1.56-3.61,2.34-6.62,2.34h-3.71v-4.49h3.71c1.29,0,2.26-.11,2.93-.33.66-.22,1.13-.58,1.39-1.09.26-.51.41-1.23.45-2.16h-2.68c-1.97,0-3.54-.58-4.69-1.73-1.15-1.15-1.73-2.77-1.73-4.84,0-1.47.27-2.79.83-3.94.55-1.15,1.31-2.04,2.27-2.66.97-.62,2.06-.93,3.29-.93,1.33,0,2.5.31,3.5.93,1.01.62,1.78,1.51,2.34,2.65.55,1.14.82,2.46.82,3.96v6.1ZM193.9,474.87c0,2.99-.78,5.32-2.34,6.99-1.56,1.67-3.78,2.51-6.66,2.51h-1.96v-4.49h1.96c1.31,0,2.32-.15,3.04-.45s1.22-.81,1.53-1.53c.3-.72.45-1.73.45-3.04v-8.78h3.99v8.78ZM193.93,462.38h-4.14v-4.05h4.14v4.05ZM200.72,476.53h-3.96v-20.81h3.96v20.81ZM224.44,482.09c-1.41,1.53-3.6,2.29-6.57,2.29h-1.56c-1.87,0-3.47-.42-4.8-1.25-1.33-.83-2.34-1.95-3.02-3.36-.69-1.41-1.03-2.99-1.03-4.73,0-1,.16-2.09.47-3.27s.69-2.31,1.15-3.36l3.49,1.46c-.85,1.95-1.28,3.68-1.28,5.17,0,1.6.39,2.81,1.17,3.63.78.82,2.06,1.23,3.85,1.23h1.56c1.33,0,2.33-.11,2.99-.34.66-.23,1.12-.62,1.35-1.18s.36-1.39.36-2.49l.03-20.71h3.93l.03,20.71c0,2.62-.71,4.69-2.12,6.21ZM241.94,475.84c0,2.57-.7,4.64-2.1,6.2-1.4,1.56-3.61,2.34-6.62,2.34h-3.71v-4.49h3.71c1.29,0,2.26-.11,2.93-.33.66-.22,1.13-.58,1.39-1.09.26-.51.41-1.23.45-2.16h-2.68c-1.97,0-3.54-.58-4.69-1.73-1.15-1.15-1.73-2.77-1.73-4.84,0-1.47.27-2.79.83-3.94.55-1.15,1.31-2.04,2.27-2.66.97-.62,2.06-.93,3.29-.93,1.33,0,2.5.31,3.5.93,1.01.62,1.78,1.51,2.34,2.65.55,1.14.82,2.46.82,3.96v6.1ZM249.1,476.53h-3.96v-20.81h3.96v20.81ZM275.1,484.06h-3.71v-3.74h3.71v3.74ZM280.95,484.06h-3.74v-3.74h3.74v3.74ZM280.31,475.68c-.92.56-2.06.84-3.41.84h-3.96c-1.77,0-3.28-.7-4.55-2.09-1.27,1.39-3.02,2.09-5.26,2.09h-1.59c-1.27,0-2.39-.22-3.38-.65s-1.76-.9-2.32-1.4l1.87-3.58c.37.25.9.5,1.57.76.67.26,1.43.39,2.26.39h1.59c.69,0,1.22-.05,1.59-.14.37-.09.65-.26.84-.51.15-.23.22-.43.22-.59,0-.33-.21-.92-.62-1.78l-3.3-7.16,3.61-1.87,3.3,7.16.22.53c.52,1.14.97,2.02,1.35,2.63.38.61.78,1.05,1.18,1.32.41.27.88.4,1.42.4h3.65c.93,0,1.6-.16,1.99-.48.39-.32.57-.78.53-1.39-.1-1.29-.37-3.01-.81-5.17l3.74-.93c.25,1.1.48,2.27.7,3.52s.33,2.25.33,3.02c0,1.04-.23,2-.69,2.9-.46.89-1.15,1.62-2.07,2.18ZM308.67,474.03c-1.43.73-2.98,1.32-4.64,1.79-1.66.47-3.45.7-5.36.7h-3.89c-.69,0-1.29-.17-1.81-.5-.21,2.66-1.08,4.71-2.62,6.17-1.54,1.45-3.65,2.18-6.35,2.18h-1.96v-4.49h1.96c1.31,0,2.32-.15,3.04-.45s1.22-.81,1.53-1.53c.3-.72.45-1.73.45-3.04v-8.78h3.99v4.52c0,.54.14.91.42,1.12.28.21.73.31,1.36.31h3.89c1.95,0,3.79-.25,5.51-.75,1.72-.5,3.5-1.24,5.33-2.21-4.38-1.52-6.94-2.27-7.66-2.27-.44,0-.8.13-1.09.39-.29.26-.55.7-.78,1.32l-3.49-1.12c.48-1.62,1.18-2.86,2.12-3.71.93-.85,2.01-1.28,3.24-1.28.85,0,2.2.32,4.03.97s4.26,1.59,7.27,2.83l.59,4.89c-1.95,1.23-3.64,2.2-5.08,2.93ZM337.72,472.82c1.06.31,1.75.77,2.09,1.39.33.61.47,1.55.41,2.82-.1,2.31-.89,4.11-2.35,5.4-1.46,1.3-3.56,1.95-6.28,1.95h-2.68c-1.83,0-3.41-.42-4.75-1.25-1.34-.83-2.36-1.96-3.05-3.38-.7-1.42-1.04-3.01-1.04-4.75,0-1.2.21-2.53.64-3.99.43-1.45.94-2.82,1.54-4.11l3.4,1.78c-1.12,2.53-1.68,4.62-1.68,6.26s.38,2.9,1.15,3.72c.77.82,2.04,1.23,3.8,1.23h2.68c1.18,0,2.1-.08,2.74-.25.64-.17,1.11-.43,1.39-.78.28-.35.45-.83.51-1.43v-.19c0-.1-.03-.18-.08-.23-.05-.05-.15-.09-.3-.11l-7.04-1.93c-.25-.91-.37-1.9-.37-2.96,0-1.27.2-2.46.61-3.58.41-1.12.95-2.08,1.64-2.87.87-.98,1.84-1.72,2.91-2.24,1.07-.52,2.21-.78,3.41-.78.62,0,1.27.06,1.95.17.68.11,1.23.26,1.67.45l-.93,4.02c-.66-.19-1.38-.28-2.15-.28s-1.51.13-2.16.39c-.65.26-1.21.62-1.67,1.07-.93.89-1.4,1.87-1.4,2.93.73.19,2.53.7,5.42,1.53ZM344.2,455.72h3.96v20.81h-3.96v-20.81ZM365.35,484.34h-4.14v-4.05h4.14v4.05ZM367.85,473.49c-.45.9-1.12,1.63-2.02,2.2-.9.56-1.99.84-3.25.84h-3.58c-.69,0-1.29-.17-1.81-.5-.21,2.66-1.08,4.71-2.62,6.17-1.54,1.45-3.65,2.18-6.35,2.18h-1.96v-4.49h1.96c1.31,0,2.32-.15,3.04-.45s1.22-.81,1.53-1.53c.3-.72.45-1.73.45-3.04v-8.78h3.99v4.52c0,.54.14.91.42,1.12.28.21.73.31,1.36.31h3.27c1.6,0,2.37-.62,2.31-1.87-.06-.91-.33-2.64-.81-5.17l3.71-.93c.71,3.05,1.06,5.23,1.06,6.54,0,1.02-.22,1.98-.67,2.88Z"/>
          <path class="cls-4" d="M235.27,466.4c-.85,0-1.5.29-1.93.87-.44.58-.65,1.33-.65,2.24,0,.85.21,1.48.62,1.88.41.41,1.08.61,1.99.61h2.68v-2.37c0-2.16-.9-3.24-2.71-3.24Z"/>
        </g>
      </g>
      <g>
        <path class="cls-4" d="M179.38,64.62v-29.06s.94,0,.94,0v29.06s-.94,0-.94,0ZM178.44,35.56v29.06s-2.11,0-2.11,0v-29.06s2.11,0,2.11,0ZM173.28,64.62v-29.06s.94,0,.94,0v29.06s-.94,0-.94,0ZM171.4,64.62v-29.06s.94,0,.94,0v29.06s-.94,0-.94,0ZM170.46,35.56v29.06s-2.11,0-2.11,0v-29.06s2.11,0,2.11,0Z"/>
        <path class="cls-4" d="M167.76,35.56v29.06s-2.11,0-2.11,0v-29.06s2.11,0,2.11,0ZM163.77,64.62v-29.06s.94,0,.94,0v29.06s-.94,0-.94,0ZM160.72,64.62v-29.06s.94,0,.94,0v29.06s-.94,0-.94,0ZM158.84,64.62v-29.06s.94,0,.94,0v29.06s-.94,0-.94,0ZM157.9,35.56v29.06s-2.11,0-2.11,0v-29.06s2.11,0,2.11,0Z"/>
        <path class="cls-4" d="M155.2,35.56v29.06s-2.11,0-2.11,0v-29.06s2.11,0,2.11,0ZM152.15,35.56v29.06s-2.11,0-2.11,0v-29.06s2.11,0,2.11,0ZM146.98,64.62v-29.06s.94,0,.94,0v29.06s-.94,0-.94,0ZM145.11,64.62v-29.06s.94,0,.94,0v29.06s-.94,0-.94,0ZM143.23,64.62v-29.06s.94,0,.94,0v29.06s-.94,0-.94,0Z"/>
        <path class="cls-4" d="M142.64,35.56v29.06s-2.11,0-2.11,0v-29.06s2.11,0,2.11,0ZM139.59,35.56v29.06s-2.11,0-2.11,0v-29.06s2.11,0,2.11,0ZM134.43,64.62v-29.06s.94,0,.94,0v29.06s-.94,0-.94,0ZM132.55,64.62v-29.06s.94,0,.94,0v29.06s-.94,0-.94,0ZM130.67,64.62v-29.06s.94,0,.94,0v29.06s-.94,0-.94,0Z"/>
        <path class="cls-4" d="M129.15,64.62v-29.06s.94,0,.94,0v29.06s-.94,0-.94,0ZM127.27,64.62v-29.06s.94,0,.94,0v29.06s-.94,0-.94,0ZM125.15,35.56v29.06s-2.11,0-2.11,0v-29.06s2.11,0,2.11,0ZM121.16,64.62v-29.06s.94,0,.94,0v29.06s-.94,0-.94,0ZM120.22,35.56v29.06s-2.11,0-2.11,0v-29.06s2.11,0,2.11,0Z"/>
        <path class="cls-4" d="M117.53,35.56v29.06s-2.11,0-2.11,0v-29.06s2.11,0,2.11,0ZM113.53,64.62v-29.06s.94,0,.94,0v29.06s-.94,0-.94,0ZM111.42,35.56v29.06s-2.11,0-2.11,0v-29.06s2.11,0,2.11,0ZM107.43,64.62v-29.06s.94,0,.94,0v29.06s-.94,0-.94,0ZM105.55,64.62v-29.06s.94,0,.94,0v29.06s-.94,0-.94,0Z"/>
        <path class="cls-4" d="M104.97,35.56v29.06s-2.11,0-2.11,0v-29.06s2.11,0,2.11,0ZM100.98,64.62v-29.06s.94,0,.94,0v29.06s-.94,0-.94,0ZM98.86,35.56v29.06s-2.11,0-2.11,0v-29.06s2.11,0,2.11,0ZM94.87,64.62v-29.06s.94,0,.94,0v29.06s-.94,0-.94,0ZM92.99,64.62v-29.06s.94,0,.94,0v29.06s-.94,0-.94,0Z"/>
        <path class="cls-4" d="M92.41,35.56v29.06s-2.11,0-2.11,0v-29.06s2.11,0,2.11,0ZM89.36,35.56v29.06s-2.11,0-2.11,0v-29.06s2.11,0,2.11,0ZM84.19,64.62v-29.06s.94,0,.94,0v29.06s-.94,0-.94,0ZM82.31,64.62v-29.06s.94,0,.94,0v29.06s-.94,0-.94,0ZM80.43,64.62v-29.06s.94,0,.94,0v29.06s-.94,0-.94,0Z"/>
        <path class="cls-4" d="M78.91,64.62v-29.06s.94,0,.94,0v29.06s-.94,0-.94,0ZM77.03,64.62v-29.06s.94,0,.94,0v29.06s-.94,0-.94,0ZM74.92,35.56v29.06s-2.11,0-2.11,0v-29.06s2.11,0,2.11,0ZM70.93,64.62v-29.06s.94,0,.94,0v29.06s-.94,0-.94,0ZM69.99,35.56v29.06s-2.11,0-2.11,0v-29.06s2.11,0,2.11,0Z"/>
        <path class="cls-4" d="M67.29,35.56v29.06s-2.11,0-2.11,0v-29.06s2.11,0,2.11,0ZM63.3,64.62v-29.06s.94,0,.94,0v29.06s-.94,0-.94,0ZM61.19,35.56v29.06s-2.11,0-2.11,0v-29.06s2.11,0,2.11,0ZM57.2,64.62v-29.06s.94,0,.94,0v29.06s-.94,0-.94,0ZM55.32,64.62v-29.06s.94,0,.94,0v29.06s-.94,0-.94,0Z"/>
      </g>
    </g>
    <g>
      <path class="cls-4" d="M70.24,518.49c0-2.43.67-4.22,2.01-5.38,1.34-1.16,3.06-1.74,5.15-1.74h1.66c.28,0,.54,0,.81-.02.26-.01.52-.02.77-.02,3.64.06,6.72.28,9.23.66v6.75h-10.14c-.5,0-.87.12-1.12.37s-.37.54-.37.87v2.57l9.69.41v6.25l-9.69.46v9.6h-7.99v-20.78Z"/>
      <path class="cls-4" d="M99.58,511.37v27.9h-7.99v-27.9h7.99Z"/>
      <path class="cls-4" d="M114.36,511.37c3.01,0,5.19.8,6.56,2.4,1.37,1.6,2.05,3.97,2.05,7.12,0,2.01-.29,3.62-.87,4.8-.58,1.19-1.48,2.15-2.69,2.9l4.68,10.68h-7.99l-3.73-9.35h-2.07v9.35h-7.99v-27.9h12.04ZM112.91,523.66c.75,0,1.29-.23,1.63-.68.34-.46.52-1.14.52-2.05,0-.85-.17-1.48-.5-1.88-.33-.4-.88-.6-1.66-.6h-2.61v5.22h2.61Z"/>
      <path class="cls-4" d="M134.31,539.52c-1.46,0-3.03-.11-4.7-.33-1.67-.22-3.1-.51-4.28-.87v-6.21c.58.03,1.11.06,1.59.08.48.03.93.06,1.35.08,1.52.11,3.41.17,5.67.17,1.1,0,1.93-.12,2.48-.37s.83-.69.83-1.32v-.17c0-.44-.16-.78-.48-1.01-.32-.23-.7-.35-1.14-.35h-1.86c-3.06,0-5.33-.67-6.81-2.01-1.48-1.34-2.21-3.51-2.21-6.52v-1.16c0-2.73.84-4.81,2.52-6.23,1.68-1.42,4.1-2.13,7.24-2.13,1.3,0,2.79.11,4.49.33,1.7.22,3.13.48,4.28.79v6.29c-2.54-.22-5.13-.33-7.78-.33h-.21c-1.02.03-1.79.15-2.3.37-.51.22-.77.66-.77,1.32v.21c0,.52.17.93.52,1.22.34.29.88.43,1.59.43h2.36c2.57,0,4.55.69,5.96,2.07,1.41,1.38,2.11,3.26,2.11,5.63v1.12c0,2.32-.37,4.11-1.1,5.38-.73,1.27-1.85,2.17-3.35,2.71-1.5.54-3.51.81-6.02.81Z"/>
      <path class="cls-4" d="M145.53,511.37h21.52v7.08h-6.79v20.82h-7.95v-20.82h-6.79v-7.08Z"/>
      <path class="cls-4" d="M167.92,532.44h9.93c.69,0,1.15-.12,1.39-.35.23-.23.35-.57.35-1.01.03-.11.04-.21.04-.31v-1.14l.04-.21c-.06-.52-.17-.9-.35-1.14-.18-.23-.52-.35-1.01-.35h-1.41c-.55,0-.94.09-1.16.27-.22.18-.33.45-.33.81h-7.49l.79-17.63h17.59v7.08h-10.84l-.12,3.35c.33-.19.72-.34,1.18-.43.46-.1.96-.14,1.51-.14h3.27c2.01,0,3.55.63,4.59,1.88,1.05,1.26,1.57,2.95,1.57,5.07v4.06c0,2.68-.84,4.55-2.5,5.63-1.67,1.08-4.17,1.61-7.51,1.61-.8,0-1.77-.05-2.92-.15-1.15-.1-2.28-.2-3.41-.31-1.27-.14-2.33-.25-3.19-.33v-6.25Z"/>
      <path class="cls-4" d="M198.82,521.18h8.11v7.49h-8.11v-7.49ZM198.82,531.78h8.11v7.49h-8.11v-7.49Z"/>
      <path class="cls-4" d="M222.04,539.27c-2.59,0-4.79-.57-6.6-1.7-1.81-1.13-3.07-2.7-3.79-4.7-.72-2-.8-4.27-.25-6.81l1.49-6.71h5.51l-1.2,5.84c-.28,1.1-.25,2.09.08,2.96.33.87.9,1.56,1.7,2.07.8.51,1.77.77,2.9.77h6.13c-.06-.36-.09-.73-.1-1.12-.01-.39.03-.77.14-1.16l1.37-8.07c.3-1.68,1.05-3.06,2.24-4.14l2.57-2.4,6.04,2.24c2.57.94,4.43,2.28,5.61,4.01,1.17,1.74,1.69,3.95,1.55,6.62l-.21,4.01h4.35c.63,0,1.17.4,1.59,1.2.43.8.64,1.78.64,2.94s-.21,2.1-.64,2.92c-.43.81-.96,1.22-1.59,1.22h-15.02c-1.49,0-2.84-.3-4.04-.91-1.2-.61-2.17-1.45-2.92-2.52-.08.14-.16.27-.23.39-.07.12-.16.24-.27.35l-.46.7c-.44.64-.99,1.12-1.66,1.47-.66.35-1.39.52-2.19.52h-2.73ZM231.27,504.33h6.33v6.13h-6.33v-6.13ZM241.17,530.99l.29-5.05c.03-.75-.12-1.37-.43-1.86-.32-.5-.83-.85-1.55-1.08l-4.06-1.49-1.2,6.91c-.08.5-.04.94.12,1.32.17.39.42.69.77.91.34.22.75.33,1.22.33h4.84Z"/>
      <path class="cls-4" d="M249.32,535.13c0-1.16.22-2.14.66-2.94.44-.8.97-1.2,1.57-1.2h7.04c-.08-.36-.14-.71-.17-1.06-.03-.34-.04-.7-.04-1.06v-8.77l6.46-1.28v9.69c0,.72.23,1.31.7,1.78.47.47,1.06.7,1.78.7h2.61c.63,0,1.17.4,1.59,1.2.43.8.64,1.78.64,2.94s-.21,2.1-.64,2.92c-.43.81-.96,1.22-1.59,1.22h-3.15c-1.49,0-2.83-.31-4.04-.93s-2.17-1.5-2.92-2.63c-.08.14-.17.28-.27.41-.1.14-.19.26-.27.37l-.54.83c-.44.63-.99,1.12-1.66,1.45s-1.39.5-2.19.5h-3.35c-.61,0-1.13-.41-1.57-1.22-.44-.81-.66-1.79-.66-2.92ZM254.21,543.24h12.46v5.59h-12.46v-5.59Z"/>
      <path class="cls-4" d="M267.66,535.13c0-1.16.22-2.14.66-2.94.44-.8.97-1.2,1.57-1.2h5.42c-.08-.36-.12-.73-.12-1.12s.05-.77.17-1.16l1.37-8.07c.3-1.68,1.05-3.06,2.24-4.14l2.57-2.4,6.04,2.24c2.57.94,4.44,2.28,5.61,4.01,1.17,1.74,1.69,3.95,1.55,6.62l-.21,4.01h4.35c.63,0,1.17.4,1.59,1.2.43.8.64,1.78.64,2.94s-.21,2.1-.64,2.92c-.43.81-.96,1.22-1.59,1.22h-15.02c-1.49,0-2.84-.3-4.04-.91-1.2-.61-2.17-1.45-2.92-2.52-.08.14-.16.27-.23.39-.07.12-.16.24-.27.35l-.5.7c-.44.66-.99,1.16-1.63,1.49-.65.33-1.37.5-2.17.5h-2.19c-.61,0-1.13-.41-1.57-1.22-.44-.81-.66-1.79-.66-2.92ZM278.58,504.33h6.33v6.13h-6.33v-6.13ZM281.44,528.42c-.08.5-.04.94.12,1.32.17.39.42.69.77.91.34.22.75.33,1.22.33h4.88l.33-5.05c.03-.75-.12-1.37-.44-1.86-.32-.5-.83-.85-1.55-1.08l-4.18-1.53-1.16,6.95Z"/>
      <path class="cls-4" d="M298.82,539.27c-.61,0-1.13-.41-1.57-1.22-.44-.81-.66-1.79-.66-2.92s.22-2.14.66-2.94c.44-.8.97-1.2,1.57-1.2h14.4l-.66-4.88c-.19-1.38-.77-2.43-1.72-3.17-.95-.73-2.12-.97-3.5-.72l-6.46,1.08.66-6.99,5.22-.87c2.04-.36,3.92-.22,5.65.41,1.72.64,3.15,1.69,4.28,3.17,1.13,1.48,1.84,3.24,2.11,5.28l.95,6.71h2.69c.61,0,1.13.4,1.57,1.2.44.8.66,1.78.66,2.94s-.22,2.1-.66,2.92c-.44.81-.97,1.22-1.57,1.22h-23.63ZM304.16,506.11h6.33v6.13h-6.33v-6.13Z"/>
      <path class="cls-4" d="M322.42,539.27c-.61,0-1.13-.41-1.57-1.22-.44-.81-.66-1.79-.66-2.92s.22-2.14.66-2.94c.44-.8.97-1.2,1.57-1.2h4.59c.66,0,1.26-.04,1.78-.12.52-.08,1.03-.21,1.53-.37l-2.65-12,6.33-3.06,2.36,10.8c.55,2.48.49,4.73-.19,6.73-.68,2-1.86,3.55-3.56,4.66-1.7,1.1-3.7,1.66-6.02,1.66h-4.18ZM322.29,507.52h12.46v5.59h-12.46v-5.59Z"/>
      <path class="cls-4" d="M349.49,530.99c.85,0,1.57-.09,2.13-.27.57-.18,1.04-.43,1.43-.77l-2.24-12.91,6-3.1,2.61,14.98c.11.58.39,1.07.85,1.47.46.4,1.03.6,1.72.6h2.07c.61,0,1.13.4,1.57,1.2.44.8.66,1.78.66,2.94s-.22,2.1-.66,2.92c-.44.81-.97,1.22-1.57,1.22h-2.03c-1.35,0-2.55-.23-3.6-.7-1.05-.47-1.93-1.23-2.65-2.28-.86,1.08-1.86,1.84-3.02,2.3-1.16.46-2.51.68-4.06.68h-6.04l-.79-8.28h7.62Z"/>
      <path class="cls-4" d="M364.02,539.27c-.61,0-1.13-.41-1.57-1.22-.44-.81-.66-1.79-.66-2.92s.22-2.14.66-2.94c.44-.8.97-1.2,1.57-1.2h13.66c.44,0,.81-.04,1.12-.12.3-.08.58-.21.83-.37l-.37-2.03c-.08-.55-.3-.99-.66-1.3-.36-.32-.81-.48-1.37-.48h-9.93l-3.39-7.45,11.34-11.05,3.23,6.29-5.88,5.38h5.71c1.82,0,3.37.52,4.64,1.55,1.27,1.03,2.06,2.44,2.36,4.2l.41,2.36c.36,2.07.17,3.97-.58,5.69-.75,1.73-1.95,3.09-3.62,4.1-1.67,1.01-3.65,1.51-5.94,1.51h-11.55Z"/>
    </g>
  </g>
</svg>