<?xml version="1.0" encoding="UTF-8"?>
<svg id="Layer_2" data-name="Layer 2" xmlns="http://www.w3.org/2000/svg" viewBox="0 0 106.76 72.41">
  <defs>
    <style>
      .cls-1 {
        fill: #f47822;
      }

      .cls-2 {
        fill: #f9f7d4;
      }
    </style>
  </defs>
  <g id="Layer_1-2" data-name="Layer 1">
    <g>
      <path class="cls-2" d="M106.65,45.58c0,4,0,8,0,12,0,.41,.01,.37-.35,.37-6.57,0-13.14,.04-19.71-.02-5.16-.04-9.79-1.69-13.81-4.96-2.3-1.87-4.23-4.05-5.73-6.62-1.21-2.07-2.04-4.29-2.51-6.64-.4-2.01-.54-4.03-.44-6.07,.16-3.35,.98-6.53,2.57-9.49,1.24-2.31,2.86-4.34,4.77-6.13,2.61-2.46,5.61-4.27,9.06-5.29,1.3-.38,2.62-.63,3.96-.78,.9-.1,1.81-.14,2.72-.14,6.36,0,12.72,0,19.08,0,.04,0,.09,0,.13,0q.25,0,.25,.26c0,.06,0,.11,0,.17,0,4.4,0,8.8,0,13.2,0,.46,.04,.41-.41,.41-6.3,0-12.61,0-18.91,0-1.29,0-2.55,.18-3.71,.74-2.89,1.38-4.71,3.62-5.24,6.81-.33,2-.09,3.94,.9,5.73,1.28,2.33,3.17,3.92,5.8,4.56,.65,.16,1.31,.23,1.97,.24,1.67,0,3.35,0,5.02,0,.08,0,.16,0,.23,0,.12,0,.18-.07,.19-.19,0-.1,0-.2,0-.3,0-3.28,0-6.56,0-9.84,0-.47-.05-.42,.43-.42,4.44,0,8.89,0,13.33,0,.44,0,.41-.06,.41,.41,0,4,0,8,0,12Z"/>
      <path class="cls-2" d="M54.96,17.71c1.62,1.62,3.25,3.24,4.87,4.86,.2,.2,.46,.38,.58,.63,.12,.25,.04,.57,.04,.85,0,11.15,0,22.31,0,33.46,0,.49,.04,.43-.42,.43-4.44,0-8.88,0-13.33,0-.48,0-.42,.04-.42-.43,0-9.87,0-19.74,0-29.61,0-.15,0-.31-.01-.46-.02-.21,.15-.32,.26-.44,.62-.69,1.24-1.39,1.85-2.08,.87-.97,1.74-1.95,2.61-2.92,.64-.72,1.28-1.44,1.92-2.15,.48-.53,.96-1.07,1.44-1.61,.18-.2,.33-.45,.61-.53Z"/>
      <path class="cls-1" d="M54.96,17.71c-.58,.58-1.1,1.21-1.65,1.82-.89,.98-1.77,1.98-2.66,2.97-1.43,1.6-2.86,3.2-4.29,4.8-.04,.04-.06,.09-.09,.14-.49,.48-.93,1.01-1.39,1.52-1.4,1.56-2.79,3.12-4.18,4.68-.1,.11-.18,.22-.27,.33-.13,.06-.18-.04-.24-.11-.59-.7-1.18-1.41-1.77-2.11-.76-.9-1.51-1.8-2.27-2.69-.23-.27-.23-.26-.49-.06-3.96,3.17-7.92,6.33-11.88,9.5-.09,.07-.16,.15-.25,.22-.03,.13-.14,.19-.24,.27-2.83,2.26-5.65,4.53-8.48,6.78-.11,.09-.23,.16-.37,.21-.6,.42-1.15,.9-1.72,1.35-2.44,1.94-4.87,3.89-7.31,5.84-.07,.06-.13,.15-.29,.18,.09-.09,.14-.15,.2-.21,1.55-1.45,3.1-2.9,4.65-4.36,.98-.92,1.97-1.85,2.95-2.78,.4-.38,.82-.74,1.2-1.15,.3-.4,.67-.75,1.04-1.07,.48-.41,.93-.86,1.38-1.29,.92-.86,1.85-1.71,2.76-2.59,.35-.34,.72-.65,1.06-1,.08-.08,.18-.13,.28-.17,.08-.02,.13-.08,.18-.14,1.34-1.26,2.67-2.52,4.01-3.78,2.03-1.91,4.07-3.82,6.11-5.72,1.55-1.45,3.1-2.91,4.65-4.37q.22-.21,.43,.03c1.38,1.63,2.77,3.26,4.15,4.88,.18,.21,.2,.22,.33,.07,.69-.84,1.41-1.65,2.07-2.51,.07-.07,.14-.14,.2-.22,1.13-1.35,2.25-2.7,3.37-4.05,.06-.07,.1-.14,.15-.22,.13-.36,.43-.61,.67-.9,1.76-2.12,3.53-4.23,5.29-6.35,.08-.09,.15-.19,.27-.23,.25-.22,.44-.5,.65-.75,.71-.85,1.42-1.7,2.13-2.55,.19-.23,.24-.19-.02-.44-1.51-1.45-3.02-2.9-4.52-4.36-.09-.09-.21-.17-.27-.31,6.05-2.27,12.09-4.54,18.21-6.83-1.69,6.53-3.36,13-5.03,19.46-.02,.01-.03,.02-.04,.02,0,0-.02,0-.03,0-.02-.01-.04-.02-.06-.04-.06-.05-.11-.11-.17-.16-1.73-1.67-3.46-3.33-5.2-5-.02-.02-.03-.03-.05-.04,0,0-.02,0-.03-.01-.1,.05-.16,.14-.23,.22-.92,1.03-1.85,2.06-2.77,3.1-.04,.05-.08,.11-.11,.16Z"/>
      <path class="cls-1" d="M81.78,68.57c0-.17,0-.3,0-.43,0-1.92,0-3.83,0-5.75,0-.09,0-.18,0-.27,0-.13,.04-.18,.17-.18,.53,0,1.06,0,1.59,0,.11,0,.17,.04,.17,.15,0,.08,0,.16,0,.23,0,3.15,0,6.29,0,9.44,0,.45,.04,.4-.38,.4-.4,0-.8,0-1.2,0-.2,0-.32-.06-.43-.23-1.27-1.97-2.56-3.93-3.84-5.9-.1-.15-.19-.29-.31-.46-.1,.13-.06,.25-.06,.36,0,1.94,0,3.88,0,5.81,0,.48,.01,.41-.41,.41-.44,0-.89,0-1.33,0-.15,0-.23-.04-.22-.21,0-.07,0-.13,0-.2,0-3.13,0-6.27,0-9.4,0-.08,0-.16,0-.23,0-.12,.05-.18,.17-.18,.52,0,1.04,0,1.56,0,.16,0,.2,.12,.26,.22,.41,.62,.81,1.24,1.21,1.86,.94,1.44,1.87,2.87,2.81,4.31,.05,.07,.08,.16,.21,.23Z"/>
      <path class="cls-2" d="M52.52,15.25c-.31,.45-.69,.86-1.04,1.28-1.64,1.97-3.28,3.94-4.92,5.91-.08,.1-.18,.19-.27,.29,0-.09-.01-.18-.01-.26,0-4.4,0-8.79,0-13.19,0-.05,0-.11,0-.19,.14,.04,.2,.15,.28,.23,1.9,1.89,3.79,3.79,5.69,5.68,.09,.09,.18,.17,.26,.25Z"/>
      <path class="cls-1" d="M61.49,65.67c0,1.05,0,2.1,0,3.16,0,.33-.02,.67-.09,.99-.26,1.26-1.02,2.1-2.26,2.44-1.14,.31-2.24,.19-3.23-.51-.67-.47-1.06-1.11-1.19-1.92-.08-.49-.12-.99-.12-1.49,0-2.03,0-4.05,0-6.08,0-.29,0-.3,.28-.3,.49,0,.97,0,1.46,0,.16,0,.22,.06,.21,.21,0,.09,0,.18,0,.27,0,1.98,0,3.96,0,5.95,0,.38-.01,.75,.08,1.12,.12,.53,.47,.83,.99,.96,.27,.07,.55,.06,.82,0,.61-.14,1-.58,1.06-1.2,.04-.35,.06-.71,.06-1.06,0-1.96,0-3.92,0-5.88,0-.4-.02-.36,.36-.36,.44,0,.89,0,1.33,0,.25,0,.26,0,.26,.26,0,1.15,0,2.3,0,3.45,0,0,0,0-.01,0Z"/>
      <path class="cls-1" d="M86.22,67.07c0-1.57,0-3.14,0-4.72,0-.08,0-.16,0-.23,0-.13,.06-.18,.18-.17,.06,0,.11,0,.17,0,1.63,0,3.26,0,4.88,0,.06,0,.11,0,.17,0,.13,0,.17,.06,.17,.18,0,.5,0,1,0,1.49,0,.22,0,.23-.26,.23-.79,0-1.57,0-2.36,0-.28,0-.55,0-.83,0-.14,0-.2,.04-.2,.19,0,.48,0,.95,0,1.43,0,.17,.06,.21,.21,.2,.64,0,1.28,0,1.93,0,.42,0,.84,0,1.26,0,.23,0,.24,0,.24,.25,0,.45,0,.91,0,1.36,0,.29,0,.3-.29,.3-.75,0-1.51,0-2.26,0-.28,0-.55,0-.83,0-.26,0-.26,0-.26,.25,0,.73,0,1.46,0,2.19,0,.23,0,.24,.24,.24,1,0,1.99,0,2.99,0,.08,0,.16,0,.23,0,.13,0,.18,.06,.18,.18,0,.52,0,1.04,0,1.56,0,.13-.07,.18-.19,.17-.06,0-.11,0-.17,0-1.63,0-3.26,0-4.88,0-.04,0-.09,0-.13,0-.17,.02-.21-.07-.2-.22,0-.08,0-.15,0-.23,0-1.55,0-3.1,0-4.65Z"/>
      <path class="cls-1" d="M63.03,70.15s.07-.06,.11-.08c.44-.27,.89-.54,1.33-.82,.13-.08,.2-.08,.29,.06,.17,.3,.37,.58,.64,.8,.38,.33,.82,.47,1.32,.34,.21-.06,.39-.16,.54-.31,.27-.27,.33-.59,.19-.95-.08-.2-.2-.37-.35-.52-.29-.3-.62-.57-.94-.84-.59-.48-1.18-.98-1.71-1.53-.41-.43-.74-.91-.89-1.5-.25-1.02,.2-2.07,1.15-2.64,1.03-.62,2.09-.58,3.13-.03,.52,.27,.91,.7,1.3,1.13,.08,.08,.08,.15,0,.22-.43,.39-.87,.78-1.32,1.19-.17-.22-.33-.42-.51-.59-.24-.22-.51-.39-.83-.45-.27-.05-.53,0-.76,.15-.31,.21-.38,.51-.21,.84,.07,.13,.17,.23,.27,.33,.47,.46,.97,.87,1.47,1.29,.43,.37,.88,.71,1.26,1.13,.4,.44,.74,.91,.86,1.51,.36,1.82-.75,3.08-2.18,3.41-.51,.12-1.03,.12-1.55,.03-.76-.13-1.39-.5-1.89-1.08-.28-.33-.51-.69-.71-1.1Z"/>
      <path class="cls-1" d="M99.07,63.39c-.48,.43-.94,.84-1.41,1.27-.13-.07-.18-.19-.27-.29-.31-.34-.64-.65-1.11-.74-.27-.05-.53,0-.76,.15-.3,.21-.37,.52-.2,.84,.07,.13,.17,.23,.27,.33,.51,.51,1.07,.96,1.62,1.42,.44,.37,.89,.73,1.27,1.17,.48,.56,.76,1.19,.77,1.93,0,1.33-.78,2.4-2.06,2.75-1.01,.27-2,.21-2.91-.37-.62-.39-1.03-.96-1.36-1.6-.07-.12-.02-.18,.08-.24,.44-.27,.89-.54,1.33-.82,.11-.07,.17-.05,.24,.06,.17,.3,.37,.58,.63,.81,.39,.34,.83,.49,1.35,.35,.76-.2,1.02-.91,.57-1.55-.15-.21-.33-.38-.53-.55-.41-.35-.83-.7-1.24-1.05-.45-.38-.88-.77-1.27-1.22-.29-.34-.52-.72-.65-1.15-.33-1.11,.18-2.28,1.27-2.86,.85-.45,1.74-.46,2.63-.11,.72,.29,1.23,.84,1.75,1.42Z"/>
      <path class="cls-1" d="M106.58,63.39c-.48,.43-.94,.85-1.41,1.27-.19-.2-.35-.39-.53-.57-.24-.24-.53-.4-.86-.46-.24-.04-.46,0-.67,.12-.36,.21-.46,.58-.23,.93,.08,.12,.18,.22,.28,.32,.5,.49,1.04,.93,1.57,1.38,.37,.31,.75,.62,1.09,.97,.45,.48,.8,1.02,.91,1.7,.25,1.52-.66,2.91-2.17,3.24-.96,.21-1.9,.14-2.75-.4-.62-.39-1.03-.96-1.37-1.6-.06-.12-.04-.18,.07-.24,.44-.27,.89-.54,1.33-.82,.13-.08,.19-.05,.26,.08,.16,.29,.36,.56,.61,.78,.4,.35,.85,.51,1.38,.35,.72-.21,.98-.88,.57-1.51-.14-.22-.33-.39-.52-.56-.42-.36-.85-.71-1.27-1.07-.43-.37-.85-.75-1.23-1.17-.31-.35-.56-.74-.7-1.2-.33-1.11,.17-2.29,1.26-2.86,1.06-.55,2.12-.47,3.13,.14,.49,.3,.87,.72,1.26,1.17Z"/>
      <path class="cls-1" d="M71.28,67.03c0-1.53,0-3.06,0-4.58,0-.07,0-.13,0-.2,0-.29,0-.29,.29-.29,.47,0,.93,0,1.4,0,.23,0,.23,0,.24,.24,0,.04,0,.09,0,.13,0,3.16,0,6.31,0,9.47,0,.42,.03,.37-.38,.37-.42,0-.84,0-1.26,0-.28,0-.29,0-.29-.29,0-1.62,0-3.23,0-4.85Z"/>
      <path class="cls-2" d="M42.52,41.38c-.15-.98-.44-1.92-.8-2.84-.45-1.16-1-2.27-1.61-3.35-.13-.23-.14-.41,0-.64,.12-.18,.23-.38,.3-.59-.34-.33-.63-.71-.94-1.07-1.07-1.28-2.16-2.55-3.22-3.84-.27-.33-.39-.34-.72-.08-3.52,2.81-7.04,5.63-10.56,8.44-.43,.35-.87,.69-1.29,1.04-.09,.08-.31,.18-.07,.35,.23,.05,.46,.03,.69,.03,.53,0,1.06,.06,1.58,.2,1.27,.34,2.07,1.13,2.34,2.44,.07,.34,.06,.68,.06,1.03,0,1.75-.99,2.94-2.72,3.24-.53,.09-1.07,.15-1.62,.15-2.97,0-5.94,0-8.9,0-.18,0-.35,0-.53,.02-.18,.02-.3,.14-.43,.24-2.69,2.16-5.39,4.29-8.01,6.42,.3-.27,.59-.57,.9-.86,.92-.87,1.85-1.72,2.76-2.59,.42-.4,.83-.8,1.25-1.19,1-.91,1.98-1.83,2.96-2.77,.13-.12,.24-.26,.26-.45,.03-1.7,0-3.41,.01-5.12,0-.82-.09-.74,.75-.75,1.84-.01,3.68,.02,5.52-.01,.19,0,.34-.08,.47-.21,1.07-1.04,2.17-2.05,3.26-3.07,1.07-1.01,2.15-2.02,3.22-3.02,1.45-1.36,2.91-2.72,4.36-4.09,1.26-1.19,2.53-2.35,3.76-3.56,.18-.18,.3-.2,.48,.02,1.33,1.57,2.66,3.14,4,4.7,.3,.35,.4,.36,.68,0,.53-.64,1.06-1.28,1.59-1.92,.11-.14,.29-.25,.26-.47,0-.13,0-.27,0-.4,0-1.03-.13-2.05-.37-3.05-.69-2.92-2.13-5.41-4.28-7.51-1.6-1.56-3.41-2.78-5.52-3.54-1.75-.64-3.57-.91-5.43-.91-8.83,0-17.66,0-26.49,0-.53,0-.46-.05-.46,.46C0,22.11,0,31.96,0,41.81c0,5.24,0,10.48,0,15.72,0,.46-.04,.42,.4,.42,8.84,0,17.68,0,26.52,0,.52,0,1.04-.01,1.56-.06,1.95-.17,3.81-.67,5.55-1.57,1.69-.87,3.16-2.03,4.45-3.43,2.47-2.66,3.84-5.8,4.07-9.43,.04-.7,.08-1.39-.03-2.09ZM14.31,23.77c.07,0,.13,0,.2,0,3.08,0,6.16,0,9.24,0,.79,0,1.57,.04,2.33,.27,1.4,.42,2.23,1.44,2.31,3.01,.03,.59,0,1.17-.18,1.74-.09,.26-.21,.49-.4,.68-.25,.25-.5,.5-.74,.76-.19,.21-.43,.34-.69,.44-.62,.23-1.26,.33-1.91,.35-1.66,.05-3.32,0-4.67,.02-1.96,0-3.61,0-5.26,0-.08,0-.16,0-.23,0-.13,0-.19-.04-.18-.17,0-.07,0-.13,0-.2,0-2.17,0-4.34,0-6.51,0-.06,0-.11,0-.17-.02-.15,.03-.23,.2-.22Z"/>
      <path class="cls-1" d="M51.21,66.7c-.09-.05-.21-.08-.28-.19,.08-.08,.16-.15,.24-.22,1.05-.92,.94-2.55,.06-3.41-.58-.57-1.29-.79-2.07-.86-.87-.08-1.75-.05-2.62-.06-.25,0-.26,0-.26,.26,0,.72,0,1.44,0,2.16,0,2.49,0,4.98,0,7.47,0,.34-.02,.32,.33,.32,.89,0,1.77,0,2.66,0,.35,0,.71-.04,1.05-.11,1.23-.25,2.15-1.19,2.31-2.43,.16-1.24-.24-2.26-1.43-2.93Zm-2.82-2.84c.33,0,.66-.03,.98,.08,.4,.13,.62,.41,.67,.82,.05,.41-.15,.81-.5,1-.38,.21-.79,.18-1.2,.17-.13,0-.11-.11-.11-.2,0-.29,0-.57,0-.86,0-.28,0-.55,0-.83,0-.11,.02-.19,.16-.19Zm1.68,6.24c-.3,.11-.62,.15-.94,.16-.23,0-.46,0-.7,0-.16,0-.21-.06-.21-.21,0-.36,0-.73,0-1.09,0-.35,0-.71,0-1.06,0-.14,.03-.23,.2-.23,.47,0,.93,.02,1.38,.16,.66,.21,.99,.69,.94,1.38-.03,.45-.26,.74-.67,.89Z"/>
    </g>
  </g>
</svg>