<?xml version="1.0" encoding="UTF-8"?>
<svg id="Layer_2" data-name="Layer 2" xmlns="http://www.w3.org/2000/svg" viewBox="0 0 113.91 62.52">
  <defs>
    <style>
      .cls-1 {
        fill: #f9f7d4;
      }

      .cls-2 {
        fill: #263238;
        opacity: .15;
      }
    </style>
  </defs>
  <g id="Layer_1-2" data-name="Layer 1">
    <g>
      <path class="cls-1" d="M93.07,27.59h20.84V11.84h-20.6c-13.99,0-25.34,11.34-25.34,25.34h0c0,13.99,11.34,25.34,25.34,25.34h20.6v-27h-15.51v11.25h-5.33c-5.3,0-9.59-4.29-9.59-9.59h0c0-5.3,4.29-9.59,9.59-9.59Z"/>
      <path class="cls-1" d="M49.26,11.84h0V62.52h15.39V27.23c-6.01-6.01-9.38-9.38-15.39-15.39Z"/>
      <path class="cls-1" d="M46.06,28.73c0-9.33-7.56-16.89-16.89-16.89H0V62.52H29.17c9.33,0,16.89-7.56,16.89-16.89h0c0-3.08-.83-5.96-2.27-8.45,1.44-2.49,2.27-5.37,2.27-8.45h0Zm-18.95,20.45H15.39v-7.1h11.72c1.96,0,3.55,1.59,3.55,3.55s-1.59,3.55-3.55,3.55Zm0-16.89H15.39v-7.1h11.72c1.96,0,3.55,1.59,3.55,3.55s-1.59,3.55-3.55,3.55Z"/>
      <polygon class="cls-1" points="62.61 19.27 49.26 5.92 51.01 .46 64.53 13.29 62.61 19.27"/>
      <polygon class="cls-1" points="74.3 11.72 60.94 0 51.01 .46 64.53 13.29 74.3 11.72"/>
      <polygon class="cls-1" points="62.61 19.27 72.37 17.74 74.3 11.72 64.53 13.29 62.61 19.27"/>
      <polygon class="cls-2" points="62.61 19.27 49.26 5.92 51.01 .46 64.53 13.29 62.61 19.27"/>
      <polygon class="cls-2" points="62.61 19.27 72.37 17.74 74.3 11.72 64.53 13.29 62.61 19.27"/>
      <polygon class="cls-2" points="62.61 19.27 72.37 17.74 74.3 11.72 64.53 13.29 62.61 19.27"/>
    </g>
  </g>
</svg>