<?xml version="1.0" encoding="UTF-8"?>
<svg id="Layer_2" data-name="Layer 2" xmlns="http://www.w3.org/2000/svg" viewBox="0 0 77.33 84.41">
  <defs>
    <style>
      .cls-1 {
        fill: none;
      }

      .cls-2 {
        fill: #7e1233;
      }

      .cls-3 {
        fill: #b71e49;
      }

      .cls-4 {
        fill: #b61e48;
      }

      .cls-5 {
        fill: #b91e49;
      }

      .cls-6 {
        fill: #b41e47;
      }

      .cls-7 {
        fill: #b51e48;
      }

      .cls-8 {
        fill: #ac1d44;
      }

      .cls-9 {
        fill: #ac1d45;
      }

      .cls-10 {
        fill: #b31e46;
      }

      .cls-11 {
        fill: #b01e46;
      }

      .cls-12 {
        fill: #a91d44;
      }

      .cls-13 {
        fill: #ab1d44;
      }

      .cls-14 {
        fill: #ae1d44;
      }

      .cls-15 {
        fill: #af1d46;
      }

      .cls-16 {
        fill: #b21e47;
      }

      .cls-17 {
        fill: #b21e45;
      }

      .cls-18 {
        fill: #a51c42;
      }

      .cls-19 {
        fill: #7b1130;
      }

      .cls-20 {
        fill: #7b1132;
      }

      .cls-21 {
        fill: #841534;
      }

      .cls-22 {
        fill: #7c1132;
      }
    </style>
  </defs>
  <g id="Layer_1-2" data-name="Layer 1">
    <g>
      <path class="cls-19" d="M34.88,52.12c-.73,.52-1.55,.8-2.42,.93-2.84,.4-5.14-.57-6.86-2.85-.75-1-1.13-2.15-1.21-3.4-.06-.9-.06-1.79,.17-2.66,.69-2.64,2.32-4.37,4.97-5.11,.19-.05,.38-.08,.58-.1,.15-.02,.23,.06,.24,.23,0,.17,0,.35,0,.52,0,2.37,0,4.75,0,7.12v.65c.23,.1,.35-.06,.49-.14,1.75-1.1,3.5-2.2,5.25-3.3,.48-.3,.96-.6,1.46-.92,.29,.48,.43,.97,.48,1.49,.16,.53-.06,.86-.52,1.11-.64,.36-1.22,.82-1.86,1.19-.42,.24-.6,.58-.6,1.07,0,1.1,0,2.21,0,3.31,0,.3,.02,.61-.18,.87Z"/>
      <path class="cls-1" d="M44.63,59.88c-.01,.61,0,1.21,.02,1.82,0,.2,0,.39,.03,.58,.07,.53,.42,.85,.95,.89,.86,.07,1.24-.48,1.25-1.08,0-.48,0-.95,0-1.43,0-.01,0-.02,0-.03-.3,0-.24-.28-.26-.46-.04-.37-.01-.74-.02-1.11,0-.4-.16-.45-.49-.25-.5,.32-.98,.68-1.56,.84,.05,.04,.09,.1,.08,.22Z"/>
      <path class="cls-19" d="M63.11,64.49c0-5.81-.01-11.62-.01-17.44,0-6.31,0-12.63,0-18.94,0-.24,0-.48,0-.72,0-.1,.05-.22-.08-.28-.48,.21-16.36,10.22-16.83,10.6,.02,.06,.03,.12,.07,.17,.85,1.29,1.69,2.58,2.55,3.87,.06,.1,.1,.25,.3,.22,.06-.09,.13-.2,.21-.31,1.25-1.91,2.51-3.81,3.75-5.74,.27-.42,.58-.58,1.07-.57,1.04,.03,2.09,.02,3.13,.02,.17,0,.35,0,.52,.02,.1,0,.16,.09,.11,.18-.08,.15-.17,.3-.27,.45-.86,1.31-1.72,2.62-2.57,3.93-.46,.71-.97,1.39-1.36,2.14-.03,.36,.25,.48,.48,.63,2.04,1.33,4.1,2.63,6.17,3.92,.65,.41,.9,.88,.9,1.65-.03,4.24-.01,8.48-.01,12.72,0,.11,0,.22,0,.33,.02,.5-.2,.51-.55,.28-.42-.28-.84-.54-1.28-.79-.19-.11-.38-.32-.65-.14,0,0,0,.02-.01,.03,.01,.02,.03,.04,.04,.07,.04,.32,.15,.63,.14,.96-.04,1.2-.99,2.12-2.2,2.1-1.22-.02-2.1-.89-2.14-2.08-.03-1.1,.5-1.8,1.49-2.2,.08-.03,.18-.03,.26-.08,.13,0,.25-.02,.38-.03,0,0,0,0,.01,0,0,0,.01-.02,.02-.03-.06-.44-.44-.57-.74-.76-1.93-1.21-3.85-2.43-5.77-3.64-.47-.29-.7-.66-.67-1.23,.03-.71,.02-1.43,0-2.15-.01-.62,.1-1.26-.17-1.86-.07-.2-.18-.38-.35-.53-.16,.08-.22,.22-.31,.34-.43,.65-.85,1.3-1.28,1.95-.15,.23-.34,.45-.43,.72-.25,.55-.17,1.14-.17,1.72,0,.46-.17,.77-.57,1-.67,.39-1.34,.78-1.91,1.32-.15,.11-.3,.23-.49,.28-.48,.16-.87,.48-1.3,.72-.35,.19-.78,.43-.6,.71,.1,0,.48-.03,.58-.03,.11,.06,.12,.17,.12,.28,0,.35,0,.69,0,1.04,0,.15,.06,.25,.23,.25,.02,0,.04,0,.06,0q.48,.04,.52,.55c.14,0,.25-.08,.37-.13h0q.06-.37,.42-.42c.09,.02,.18,.03,.25,.08,.58-.17,1.06-.53,1.56-.84,.32-.2,.48-.15,.49,.25,0,.37-.02,.74,.02,1.11,.02,.18-.04,.47,.26,.46,0-.21,.02-.41,.03-.62,.01-.41,.03-.43,.46-.41,.25,0,.3,.05,.29,.32-.03,.76-.07,1.52-.1,2.28-.02,.68-.29,1.22-.91,1.54,.11,.22,.14,.45,.14,.7,0,2.13,0,4.27,0,6.4,0,.15-.01,.3-.04,.45-.03,.13-.19,.21-.31,.14-.19-.1-.38-.22-.56-.33-1.3-.79-2.59-1.59-3.89-2.38-1.11-.68-2.23-1.35-3.34-2.02-.84-.51-1.67-1.01-2.5-1.52-.14-.09-.16-.22-.03-.31,.23-.16,.47-.32,.7-.47,.33-.21,.66-.42,.99-.63,.14-.09,.23-.2,.24-.37,0,0,0,0,0,0,0,0,0,0,0,0-.18-.29-.45-.52-.58-.84,.03-.05,.05-.09,.09-.11,.48-.33,.48-.36,.8,.12,.07,.11,.16,.2,.26,.29,.33,.3,.7,.32,1.07,.08,.4-.26,.49-.69,.18-1.06-.23-.28-.51-.53-.79-.77-.29-.26-.61-.49-.91-.73-.01-.02-.02-.04-.04-.07-.03-.01-.05-.02-.08-.03-.83,.28-1.49,.87-2.25,1.29-.18,.1-.36,.35-.57,.24-.25-.13-.14-.43-.14-.65-.01-1.26,0-2.52,0-3.78,0-.28,.05-.57-.18-.8-.09,.01-.18,.01-.26,.04-1.21,.39-2.46,.54-3.73,.52-2.13-.05-4.07-.66-5.82-1.86-1.89-1.3-3.18-3.07-4.05-5.17-.58-1.38-.87-2.83-.84-4.33,.03-1.54,.4-3.01,1.04-4.42,.82-1.8,1.97-3.33,3.59-4.48,1.46-1.04,3.11-1.65,4.86-1.95,.88-.15,.73-.12,.73-.89,0-8.9,0-17.81,0-26.71,0-.15,0-.31,0-.46,0-.1,.04-.22-.12-.28-.1,.06-.21,.12-.32,.19C20.36,12.86,10.77,18.94,1.17,25.01c-.02,.01-.04,.03-.04,.05,0,.02,0,.04,0,.05,.04,.13,.15,.16,.24,.22,.61,.37,1.19,.8,1.83,1.12,.22,.07,.37-.06,.54-.17,1.48-.96,2.98-1.87,4.47-2.81,1.53-.96,3.05-1.92,4.59-2.86,.51-.31,.57-.26,.59,.33,0,.17,0,.35,0,.52,0,3.54,0,7.09,0,10.63,0,.37-.05,.75,.3,1.02,.32,.22,.64,.44,.96,.67,.02,.02,.04,.08,.03,.11-.01,.03-.06,.05-.1,.06-.04,.01-.09,0-.13,0-.85-.01-1.7-.03-2.54-.04-.46,0-.94,.08-1.36-.04-.44-.13-.83-.46-1.23-.71-2.96-1.87-5.92-3.74-8.88-5.61-.12-.08-.23-.22-.4-.14-.07,.94-.04,35.95,.02,36.47,.43-.1,1.36-.54,2.15-1.02,.14-.18,.19-.39,.19-.61,0-.95,.05-1.91-.02-2.86-.23-3.17-.04-6.33-.11-9.5,0-.48,.2-.44,.5-.23,.64,.45,1.32,.83,1.97,1.26,.25,.17,.5,.37,.84,.26,.3-.31,.2-.7,.2-1.06,0-4.53,0-9.05,0-13.58,0-.88,.02-.91,.92-.9,1.76,0,3.52,0,5.28,.12,1.09,.07,2.11,.31,3.05,.85,2.62,1.51,3.28,4.95,1.39,7.19q-.98,1.16,.26,2.02c2.61,1.82,3.2,5.3,1.38,7.91-.91,1.3-2.15,2.06-3.64,2.47-.16,.08-.33,.14-.47,.26-.03,.07-.05,.14-.03,.21,.12,.39,.13,.79,.13,1.2,0,.29-.05,.6,.18,.85,.14,.02,.28,.04,.45,.06-.1,.21-.32,.23-.45,.36-.25,.3-.18,.66-.18,1,0,3.54,0,7.08,0,10.62,0,.2,.1,.48-.14,.59-.19,.08-.35-.12-.52-.22-2.47-1.54-4.92-3.11-7.39-4.65-.86-.54-1.66-1.18-2.64-1.53-.36,.1-.66,.32-.99,.49-.39,.2-.77,.41-1.15,.62-.09,.05-.09,.15,0,.21,.12,.09,.25,.17,.38,.25,7.47,4.67,14.94,9.34,22.41,14.01,1.99,1.25,3.98,2.49,5.98,3.73,.12,.07,.22,.23,.41,.09v-1.17c0-6.16,0-12.32,0-18.48,0-.28-.02-.56,.06-.84,.31-1.09,.62-2.17,.94-3.26,.03-.1,.08-.2,.12-.31,.15,.14,.18,.32,.22,.48,.25,.88,.5,1.76,.77,2.63,.17,.53,.23,1.05,.23,1.6,0,6.18,0,12.37,0,18.55,0,.2,0,.39,0,.59,0,.1-.04,.22,.13,.29,.22-.13,.46-.27,.7-.42,9.56-6,19.13-12,28.69-18.01,.94-.59,.83-.45,.83-1.49Zm-10.59-.91c0,.06-.05,.14-.09,.15-.15,.04-.3,.05-.45-.01-.12-.05-.08-.19-.14-.27-.01-.02-.03-.03-.05-.06-.26,.1-.52,.21-.79,.3-1.32,.44-2.19-.23-2.61-1.09-.48-.99-.09-2.22,.84-2.8,.36-.22,.76-.31,1.19-.26,.35,.05,.68,.15,.99,.3,.13,.06,.25,.19,.46,.1,0-.52,0-1.06,0-1.61,0-.11,0-.23,.12-.27,.15-.04,.3-.05,.45,0,.03,.01,.06,.07,.06,.11,.01,.15,.02,.3,.02,.46,0,1.52,0,3.04,0,4.56,0,.13,0,.26-.01,.39Zm1.51,0c-.01,.13-.1,.19-.22,.19-.09,0-.17,0-.26,0-.16,0-.23-.1-.23-.25,0-.3,0-.61,0-.91,0-.3,0-.61,0-.91h0c0-.59,0-1.17,0-1.76,0-.33,.04-.36,.39-.35,.04,0,.09,0,.13,0,.12,.02,.2,.08,.2,.21,0,.09,0,.17,0,.26,0,1.06,0,2.12,0,3.19,0,.11,0,.22-.01,.32Zm-.33-4.6c-.31,.01-.54-.2-.54-.51,0-.31,.22-.54,.52-.54,.28,0,.5,.25,.51,.56,0,.28-.2,.48-.49,.49Z"/>
      <path class="cls-11" d="M43.88,60.1s0-.07,0-.11c-.12,.06-.23,.14-.37,.13,0,0-.02,.02-.03,.02,.14,.08,.27,.05,.4-.05Z"/>
      <path class="cls-11" d="M46.56,63.75s0,0,0,0c.07,2.28,.03,4.56,.03,6.84,0,.62-.11,.67-.63,.38-.15-.08-.3-.17-.45-.27-2.83-1.75-5.68-3.46-8.51-5.21-.84-.52-.84-.49,.02-1.05,.41-.27,.96-.4,1.09-.99-.03-.02-.06-.04-.09-.06,0,0,0,0,0,0-.01,.17-.1,.28-.24,.37-.33,.2-.66,.41-.99,.63-.24,.15-.47,.3-.7,.47-.13,.1-.12,.23,.03,.31,.83,.51,1.67,1.01,2.5,1.52,1.11,.67,2.23,1.35,3.34,2.02,1.3,.79,2.59,1.59,3.89,2.38,.18,.11,.37,.23,.56,.33,.12,.06,.29-.01,.31-.14,.03-.15,.04-.3,.04-.45,0-2.13,0-4.27,0-6.4,0-.25-.03-.48-.14-.7,0,0,0,0,0,0-.02,0-.04,0-.06,.01Z"/>
      <path class="cls-9" d="M61.4,61.76c0-.11,0-.22,0-.33,0-4.48,0-8.96,0-13.44,0-.15,0-.3,0-.46,.01-.21-.08-.38-.24-.51-.12-.1-.24-.19-.37-.27-.84-.54-1.69-1.07-2.53-1.6-1.41-.89-2.81-1.79-4.22-2.69-.15-.1-.27-.21-.36-.37-.07,.08-.14,.16-.2,.25-.59,.89-1.17,1.78-1.76,2.67q-.41,.62,.02,1.27c1.93,2.95,3.86,5.89,5.79,8.84,.2,.31,.4,.62,.6,.93,.05,.07,.1,.14,.14,.22,.1,.18,.05,.28-.17,.29-1.24,.01-2.48,.02-3.72,.04-.39,0-.67-.16-.87-.47-.19-.29-.35-.6-.54-.89-1.1-1.69-2.21-3.38-3.32-5.07-.08-.13-.18-.24-.28-.36,0,1.45,0,2.91-.01,4.36,0,.34,.13,.59,.39,.77,.3,.21,.61,.41,.92,.61,1.1,.69,2.2,1.38,3.3,2.07,.64,.4,1.29,.8,1.92,1.21,.29,.19,.63,.31,.8,.64,0,0,0,0,0,0,0,0,0,0,0,0,.19,.03,.37,.06,.56,.1,.55,.12,.98,.44,1.29,.91,.06,.08,.11,.17,.17,.25,0,.02-.01,.03-.02,.05,.02,0,.04,.01,.06,.01,.07-.09,.14-.06,.22,0,.66,.41,1.34,.81,1.99,1.24,.35,.23,.44,.13,.42-.26Z"/>
      <path class="cls-12" d="M77.33,18.17c0,.25,0,.4,0,.55,0,4.02,0,8.05,0,12.07,0,.15,0,.3,0,.46,0,.11-.08,.16-.17,.11-.14-.06-.26-.15-.39-.23-3.08-1.88-6.15-3.77-9.23-5.65-.28-.17-.56-.34-.83-.52-.09-.06-.08-.15,0-.21,.1-.08,.21-.15,.32-.22,3.23-2,6.47-4.01,9.7-6.01,.16-.1,.33-.19,.61-.35Z"/>
      <path class="cls-7" d="M14.24,59.12c0,3.94,0,7.88,0,11.82,0,.2,0,.39-.01,.59,0,.16-.13,.22-.27,.14-.41-.24-.82-.48-1.23-.74-1.28-.81-2.56-1.63-3.85-2.44-1.54-.97-3.09-1.93-4.62-2.91-.31-.2-.65-.36-.88-.65,.11-.14,.28-.2,.43-.28,3.38-1.8,6.76-3.6,10.13-5.4,.1-.05,.2-.09,.3-.13Z"/>
      <path class="cls-9" d="M3.21,26.45c1.07-.77,2.21-1.44,3.34-2.13,.87-.54,1.72-1.08,2.58-1.63,1.34-.84,2.68-1.68,4.02-2.52,.05-.03,.12-.06,.18-.08,.12-.05,.24,0,.24,.12,.01,.19,.01,.39,.01,.59,0,3.8,0,7.6,0,11.41,0,.3-.03,.61,.12,.89-.13-.07-.27-.13-.4-.21-3.23-2.04-6.46-4.09-9.68-6.14-.14-.09-.31-.15-.41-.31Z"/>
      <path class="cls-12" d="M52.93,1.16c.13,.07,.27,.13,.4,.21,3.03,1.93,6.06,3.85,9.08,5.78,.07,.05,.14,.1,.22,.14,.35,.18,.49,.44,.48,.84-.02,1.83-.02,3.66-.02,5.49,0,.91,0,1.83,0,2.74,0,.22-.02,.43-.03,.65-.18,.1-.26,0-.3-.17,.02-.63,0-1.26,.02-1.89,.03-.53-.22-.84-.64-1.11-2.2-1.4-4.41-2.8-6.61-4.2-.73-.47-1.47-.93-2.2-1.4-.42-.27-.62-.63-.62-1.14,0-1.76,0-3.52,0-5.29,0-.23-.03-.49,.2-.66Z"/>
      <path class="cls-19" d="M42.21,19.18c-1.14,.72-2.28,1.44-3.42,2.16-.59,.37-1.18,.74-1.77,1.11-.11,.07-.21,.16-.35,.16-.17-.07-.1-.22-.1-.33,0-1.46,0-2.92,0-4.37,0-3.13-.01-6.27,0-9.4,0-.73-.2-.85,.76-1.41,.45-.26,.85-.6,1.33-.81,.26,.27,.18,.61,.18,.93,0,2.3,0,4.61,0,6.91,0,.21-.09,.5,.1,.62,.23,.14,.44-.11,.63-.23,2.65-1.66,5.32-3.31,7.98-4.95,.11-.07,.22-.14,.33-.21,.65-.36,.76-.3,.76,.44,0,.63,0,1.26,0,1.89,0,.07,0,.13,0,.2-.56,.63-1.33,.94-2.02,1.38-1.28,.81-2.56,1.61-3.85,2.4-.77,.46-1.52,.94-2.28,1.41-.37,.23-.39,.41,0,.64,.56,.34,1.13,.66,1.64,1.06,.1,.08,.21,.16,.17,.32h-.02c0,.06-.04,.09-.09,.09Z"/>
      <path class="cls-4" d="M2.22,62.85c0-.87,0-1.74,0-2.61,0-.45,.04-.91-.1-1.36-.04-.14-.02-.3-.02-.45,0-2.93,0-5.86,0-8.79,0-.17-.05-.34,.07-.53,.24,.02,.43,.16,.63,.29,.76,.49,1.52,.99,2.29,1.48,.16,.11,.33,.22,.53,.23,.25,.24,.21,.56,.21,.86,.01,1.13,0,2.26,0,3.39,0,1,.04,1.05,1.01,1.03,2.06-.04,4.12-.19,6.18-.12,.32,.01,.66-.05,.94,.18,.23,.25,.31,.55,.29,.89-.02,.45,0,.91,0,1.36-.56,.01-1.13,.03-1.69,.03-.46,0-.92,.02-1.37,0-.41-.02-.76,.09-1.12,.27-2.45,1.22-4.91,2.44-7.36,3.65-.15,.08-.32,.14-.48,.2Z"/>
      <path class="cls-15" d="M48.61,11.79c0-.74,0-1.48-.02-2.21,0-.34-.06-.37-.38-.2-.11,.06-.22,.13-.33,.2-1.2,.74-2.39,1.48-3.59,2.22-1.08,.67-2.17,1.35-3.25,2.02-.64,.4-1.28,.81-1.92,1.21-.07,.05-.16,.07-.24,.1-.11,.04-.18-.03-.19-.12-.02-.19-.02-.39-.02-.58,0-2.71,0-5.43,0-8.14,.1-.08,.19-.17,.3-.24,1.02-.65,2.04-1.31,3.07-1.96,.09-.06,.19-.1,.28-.15,1.79,1.01,3.51,2.13,5.27,3.18,.23,.14,.48,.46,.73,.33,.26-.13,.09-.51,.12-.78,.04-.27-.08-.57,.19-.78,.1,.54,.05,1.08,.07,1.62,.03,1.32,.02,2.64,.03,3.96,0,.11-.02,.21-.03,.32-.03,0-.05,0-.08,0Z"/>
      <path class="cls-3" d="M42,58.04c.09-.19,.55-.49,.71-.59,.41-.26,.86-.46,1.19-.84-.28-.01-.56-.04-.84-.04-1.04,0-2.09,0-3.13,0-.1,0-.22,.03-.29-.14,.1-.16,.21-.35,.33-.53,1.02-1.56,2.05-3.12,3.07-4.68,1.12-1.71,2.24-3.42,3.37-5.11,.23-.34,.23-.61,0-.94-.54-.79-1.06-1.59-1.58-2.39-.35-.52-.7-1.04-1.05-1.56-.62,.51-1.36,.86-1.94,1.41,.03,.13,.05,.25,.08,.38,.42,1.64,.55,3.3,.25,4.97-.72,3.95-2.95,6.72-6.63,8.33-.22,.09-.46,.13-.65,.29,0,1.65,0,3.3,0,4.94,0,.17,0,.35,.02,.52,0,.1,.16,.18,.25,.13,.08-.04,.15-.09,.22-.13,.6-.38,1.2-.78,1.81-1.15,.31-.19,.6-.42,.96-.53,0-.01,.01-.03,.02-.04-.02,0-.03-.02-.05-.02-.06-.11-.13-.22-.18-.33-.21-.5-.19-.98,.17-1.4,.36-.43,.84-.58,1.4-.48,.28,.05,.52,.19,.75,.37,.13,.11,.26,.22,.4,.33,.03,.02,.05,.04,.07,.06,.48-.14,.76-.8,1.29-.81"/>
      <path class="cls-16" d="M62.84,16.89c.05,.09,.13,.12,.23,.13,0,.54,.02,1.08,.02,1.63,0,1.26,0,2.52,0,3.78,0,.17-.1,.22-.25,.13-.44-.27-.88-.55-1.32-.83-2.71-1.72-5.43-3.43-8.14-5.15-.16-.1-.31-.23-.47-.34-.17-.25-.17-.53-.17-.81,0-1.3,0-2.61,0-3.91,0-.92,.25-1.06,1.04-.56,2.22,1.41,4.45,2.8,6.67,4.21,.64,.41,1.28,.81,1.92,1.23,.2,.13,.43,.23,.47,.5Z"/>
      <path class="cls-19" d="M62.84,16.89c-.97-.62-1.94-1.23-2.91-1.85-.57-.36-1.14-.7-1.71-1.06-1.35-.86-2.71-1.72-4.06-2.58-.31-.2-.6-.43-.95-.57-.2-.08-.29-.03-.3,.18,0,.17,0,.35,0,.52,0,1.56,0,3.13,0,4.69-.55-.25-1.04-.63-1.56-.94-.2-.12-.3-.31-.29-.55,0-.07,0-.13,0-.2-.03-4.72-.06-9.44-.09-14.15,0-.13,0-.25,0-.39,.43,.1,1.1,.5,1.97,1.15,0,.48-.02,.95-.02,1.43,0,1.56,0,3.13,0,4.69,0,.32,.1,.54,.37,.7,.81,.51,1.61,1.02,2.41,1.53,.57,.36,1.14,.71,1.7,1.07,1.26,.81,2.5,1.63,3.77,2.42,.51,.32,1.02,.65,1.53,.98,.18,.12,.29,.25,.29,.47,0,.72,0,1.43,0,2.15,0,.11-.04,.21-.13,.28Z"/>
      <path class="cls-19" d="M65.74,27.18c.59,.3,1.15,.64,1.68,1.03,.2,.26,.17,.58,.17,.88,0,1.17,0,2.34,0,3.51,0,.46,.13,.53,.52,.28,.93-.6,1.87-1.19,2.8-1.78,.25-.16,.48-.39,.83-.26,.84,.5,1.68,1,2.52,1.5,.61,.37,1.22,.75,1.83,1.13,.12,.07,.12,.18,.02,.26-.09,.07-.18,.13-.27,.18-1.38,.91-2.77,1.81-4.15,2.72-.07,.05-.15,.08-.23,.11-.43,.12-.4-.23-.43-.46-.05-.52-.01-1.04-.02-1.57,0-.17,.06-.4-.1-.49-.2-.12-.36,.08-.52,.18-1.25,.84-2.5,1.66-3.77,2.46-.11,.07-.21,.15-.33,.21-.2,.12-.42,.32-.66,.18-.22-.13-.12-.4-.12-.6,0-2.98,0-5.96,0-8.94,0-.19-.17-.5,.21-.56Z"/>
      <path class="cls-19" d="M71.45,12.96c.69,.36,1.33,.8,1.97,1.23,.12,.47-.28,.59-.54,.76-1.51,.94-2.99,1.92-4.52,2.81-.65,.38-.95,.84-.93,1.62,.03,.72,.19,1.47-.15,2.17-.53,.34-1.06,.68-1.59,1.02-.14,.09-.23,.02-.23-.16,0-.13,0-.26,0-.39,0-4.09,0-8.17,0-12.26v-.52c.38,.07,1.1,.5,1.95,1.14,.21,.26,.18,.57,.18,.87,0,1.08,0,2.17,0,3.25,0,.61,.06,.63,.56,.32,.85-.52,1.67-1.09,2.52-1.61,.24-.15,.47-.32,.78-.26Z"/>
      <path class="cls-21" d="M48.62,5.89c0,.52-.02,1.04-.03,1.56,0,.09,0,.17-.02,.26-.03,.11-.12,.13-.2,.09-.21-.11-.42-.23-.62-.36-1.57-.96-3.14-1.91-4.7-2.88-.27-.17-.59-.3-.73-.62,.49-.4,1.04-.7,1.57-1.04,1.35-.87,2.71-1.74,4.06-2.6,.18-.11,.34-.27,.55-.3,.14,.04,.11,.14,.11,.22,.02,1.85,.03,3.7,.04,5.54,0,.04-.02,.09-.02,.13Z"/>
      <path class="cls-11" d="M67.28,21.56c0-.91,.02-1.82-.01-2.73-.01-.38,.14-.62,.41-.83,.16-.12,.32-.22,.49-.32,.99-.62,1.98-1.23,2.97-1.85,.62-.39,1.25-.78,1.87-1.16,.19-.12,.37-.24,.41-.48,.95,.56,1.87,1.17,2.81,1.77-.19,.23-.39,.32-.57,.43-2.7,1.68-5.39,3.35-8.09,5.03-.09,.06-.19,.09-.29,.14Z"/>
      <path class="cls-16" d="M48.61,11.79s.05,0,.08,0c.01,1,.02,2,.04,3,0,.22-.09,.37-.26,.49-.07,.05-.14,.1-.22,.14-1.9,1.19-3.79,2.38-5.69,3.56-.07,.04-.16,.07-.23,.1-.58-.48-1.24-.84-1.88-1.25-.83-.53-.65-.48,0-.93,.68-.45,1.38-.87,2.08-1.3,.05-.03,.12-.03,.19-.04,1.24-.65,2.43-1.39,3.66-2.07,.43-.24,.88-.35,1.36-.32,.49,.03,.74-.14,.69-.66-.02-.22,0-.43,.16-.61,0-.04,.01-.08,.02-.12Z"/>
      <path class="cls-18" d="M65.74,27.18c-.09,.07-.15,.16-.15,.27,0,.17,0,.35,0,.52,0,2.85,0,5.69,0,8.54,0,.19,0,.39,.02,.58,.01,.1,.11,.14,.2,.1,.12-.06,.22-.13,.33-.2,1.47-.96,2.93-1.93,4.4-2.89,.17-.11,.36-.37,.55-.27,.25,.12,.11,.43,.12,.65,.02,.65,0,1.3,0,1.96,0,.18,.08,.29,.26,.32-.52,.35-1.03,.71-1.56,1.06-1.3,.86-2.61,1.72-3.92,2.57-.14,.09-.26,.23-.45,.22-.11-.09-.06-.2-.06-.3,0-4.26,0-8.52,0-12.77,0-.11,0-.22,0-.33,0-.13,.08-.13,.28-.02Z"/>
      <path class="cls-5" d="M34.88,52.12c0-1.45,.01-2.91-.01-4.36,0-.48,.2-.76,.59-.99,.74-.44,1.45-.94,2.2-1.37,.36-.2,.36-.5,.38-.82,.01,.02,.03,.04,.03,.06,.61,3.35-.95,6.11-3.13,7.48-.02,.01-.04,.01-.06,.02Z"/>
      <path class="cls-13" d="M71.74,30.85c-.1,.04-.21,.06-.3,.12-.75,.48-1.49,.96-2.23,1.44-.49,.32-.98,.63-1.48,.94-.21,.13-.3,.08-.31-.19,0-.04,0-.09,0-.13,0-1.61,0-3.21,.01-4.82,.1,.04,.2,.08,.29,.14,1.27,.78,2.55,1.56,3.82,2.34,.07,.04,.13,.1,.2,.16Z"/>
      <path class="cls-11" d="M71.45,12.96c-.5,.31-1,.6-1.49,.92-.75,.48-1.49,.96-2.24,1.44-.21,.13-.3,.08-.31-.19,0-.17,0-.35,0-.52,0-1.41,0-2.82,0-4.23,.37,.22,.74,.44,1.11,.67,.88,.56,1.76,1.12,2.63,1.68,.11,.07,.2,.16,.31,.23Z"/>
      <path class="cls-22" d="M43.77,41.22c-.01,.16-.1,.29-.23,.38-.49,.32-.98,.64-1.47,.95-.07,.04-.16,.05-.25,.08-.22-.58-.45-1.16-.69-1.78,.55-.35,1.09-.7,1.63-1.05,.31,.15,.4,.46,.57,.7,.16,.22,.29,.48,.43,.72Z"/>
      <path class="cls-6" d="M47.03,52.29c0,.69,0,1.38,0,2.07,0,.26-.08,.44-.32,.58-.79,.43-1.48,1.05-2.32,1.39,.05-.22,.2-.38,.32-.56,.64-.99,1.29-1.98,1.94-2.97,.12-.18,.2-.38,.38-.51Z"/>
      <path class="cls-16" d="M42.21,19.18s.04-.07,.09-.08c0,.05-.03,.08-.09,.08Z"/>
      <path class="cls-17" d="M28.09,18.47c0,2.22,0,4.44,0,6.66,0,.17,.01,.35,0,.52-.04,.26-.14,.49-.38,.65-.9,.57-1.79,1.15-2.68,1.72-.33,.21-.66,.42-.99,.63-1.57,1-3.14,2.01-4.71,3.01-1.02,.65-2.05,1.31-3.07,1.96-.18,.12-.28,.06-.3-.15,0-.09,0-.17,0-.26,0-.17,0-.35,0-.52,0-3.72,0-7.44,0-11.16,0-.32-.04-.64-.08-.97-.07-.53-.05-1.08-.03-1.63,0-.27,.16-.48,.4-.63,.98-.6,1.94-1.23,2.91-1.84,.6-.38,1.21-.76,1.82-1.14,1.34-.84,2.69-1.67,4.03-2.51,.81-.51,1.61-1.02,2.42-1.53,.11-.07,.22-.15,.33-.21,.16-.09,.32-.01,.34,.16,.01,.19,.01,.39,.01,.59,0,2.22,0,4.44,0,6.66h0Z"/>
      <path class="cls-8" d="M34.75,73.78c0-1.94,0-3.87,0-5.81,0-.19,.01-.39,.04-.58,.02-.13,.2-.2,.31-.14,.17,.1,.34,.2,.5,.3,.66,.41,1.32,.82,1.99,1.23,1.24,.76,2.48,1.51,3.72,2.27,.89,.54,1.77,1.08,2.66,1.63,.42,.26,.85,.52,1.27,.79,.09,.06,.17,.14,.24,.21,.05,.05,.04,.12,0,.18-.03,.03-.06,.06-.1,.08-1.15,.77-2.29,1.57-3.47,2.3-1.11,.68-2.17,1.43-3.27,2.13-1.04,.67-2.07,1.36-3.1,2.03-.54,.35-.76,.23-.79-.44,0-.13,0-.26,0-.39,0-1.94,0-3.87,0-5.81h0Z"/>
      <path class="cls-7" d="M16.59,65.01c0-2.04,0-4.09,0-6.13,0-.17-.08-.39,.08-.49,.19-.11,.35,.08,.51,.18,1.71,1.1,3.42,2.21,5.14,3.3,1.57,1,3.15,1.99,4.73,2.98,.05,.03,.11,.07,.15,.12,.06,.07,.07,.16,.02,.24-.09,.13-.21,.21-.34,.29-1.2,.74-2.39,1.49-3.59,2.23-1.05,.65-2.11,1.29-3.16,1.94-.88,.55-1.76,1.1-2.64,1.66-.13,.08-.25,.17-.39,.24-.46,.24-.52,.22-.52-.29,0-2.09,0-4.17,0-6.26h0Z"/>
      <path class="cls-14" d="M28.48,73.92c0,2,0,4,0,6.01,0,.17,.08,.39-.08,.49-.19,.12-.35-.07-.52-.17-1.35-.82-2.71-1.64-4.06-2.46-.69-.42-1.36-.85-2.04-1.27-1-.61-2-1.22-3-1.83-.26-.16-.53-.3-.79-.46-.25-.15-.25-.32,.01-.49,.49-.32,.99-.63,1.48-.94,.85-.53,1.69-1.05,2.54-1.58,1.05-.65,2.11-1.29,3.16-1.94,.44-.27,.88-.56,1.32-.83,.57-.35,1.15-.7,1.72-1.05,.11-.06,.23,0,.23,.13,.01,.2,.01,.39,.01,.59,0,1.94,0,3.87,0,5.81h0Z"/>
      <path class="cls-11" d="M43.97,62.39c-.04-.23-.05-.47-.06-.71-.02-.52-.02-1.05-.03-1.58-.13,.1-.26,.13-.4,.05-.21,.18-.49,.02-.72,.13-.1,.12-.06,.28-.06,.43,0,.89,0,1.78,0,2.67,0,.13,.04,.29-.1,.35-.16,.07-.34,.07-.51,0-.05-.02-.09-.1-.09-.15-.02-.17-.01-.35-.02-.52-.02-.58,.04-1.15-.04-1.73-.52-.26-.81,.23-1.18,.43,0,.02,0,.05,0,.07,.01,.13,.02,.26,.04,.38,.13,1.14-1.24,2.04-2.35,1.47-.12-.06-.23-.14-.34-.22-.12,.58-.68,.72-1.09,.99-.85,.56-.86,.53-.02,1.05,2.83,1.74,5.68,3.46,8.51,5.21,.15,.09,.3,.18,.45,.27,.52,.29,.63,.23,.63-.38,0-2.28,.04-4.56-.03-6.84,0,0,0,0,0,0-.24,.04-.47,.09-.71,.1-1.04,.04-1.74-.5-1.89-1.47Z"/>
      <path class="cls-10" d="M44.63,59.88c-.01,.61,0,1.21,.02,1.82,0,.2,0,.39,.03,.58,.07,.53,.42,.85,.95,.89,.86,.07,1.24-.48,1.25-1.08,0-.48,0-.95,0-1.43,0,0,0,0,0,0-.12-.15-.1-.33-.1-.5,0-.45,0-.91,0-1.36,0-.15,.02-.33-.14-.4-.15-.07-.28,.05-.41,.13-.14,.1-.28,.2-.43,.29-.48,.28-.93,.62-1.48,.75,.09,.02,.18,.03,.25,.08,.05,.04,.09,.1,.08,.22Z"/>
      <path class="cls-4" d="M13.95,56.45c.11-.11,.25-.1,.39-.08-.11,.13-.25,.11-.39,.08Z"/>
      <path class="cls-15" d="M48.59,11.91c0,.3,.01,.61,0,.91,0,.51-.03,.52-.5,.53-.17,0-.35,.02-.52,0-.44-.05-.82,.09-1.16,.33-.25,.18-.53,.3-.79,.45-.61,.33-1.23,.65-1.83,1-.34,.2-.7,.34-1.07,.45,.2-.34,.59-.42,.89-.62,.85-.56,1.73-1.07,2.59-1.61,.74-.46,1.47-.92,2.2-1.38,.05-.03,.12-.04,.19-.05Z"/>
      <path class="cls-2" d="M42,58.04c0,.39-.01,.77-.02,1.16,0,.34-.01,.34-.35,.39-.31,.04-.33,.06-.32,.35,0,.26,.03,.29,.29,.32,.04,0,.09,0,.13,0,.23,.03,.26,.05,.26,.27,0,.26,.03,.52-.04,.77-.24,.02-.43,.15-.62,.28-.17,.12-.35,.23-.56,.25-.22-.43-.54-.78-.92-1.07-.24-.19-.48-.37-.72-.56-.17-.13-.34-.27-.45-.46-.12-.2-.16-.4-.02-.61,.13-.19,.31-.29,.55-.29,.21,0,.38,.09,.53,.21,.15,.13,.29,.26,.42,.39,.2-.07,.34-.21,.49-.32,.17-.12,.02-.22-.02-.33,.26-.18,.51-.37,.78-.55,.18-.12,.36-.22,.59-.21Z"/>
      <path class="cls-19" d="M9.81,49.93c0-.78,0-1.57,0-2.35,0-.23,.05-.27,.26-.27,.83,0,1.65-.02,2.47,.15,.45,.1,.89,.22,1.29,.45,1,.56,1.58,1.63,1.28,2.95-.17,.73-.62,1.23-1.35,1.45-.61,.19-1.23,.31-1.86,.33-.59,.02-1.18,0-1.76,0-.3,0-.32-.04-.33-.35,0-.78,0-1.57,0-2.35h0Z"/>
      <path class="cls-19" d="M9.81,41.43c0-.65,0-1.3,0-1.95,0-.18,.06-.24,.23-.24,.63,0,1.26,.02,1.88,.13,.3,.05,.59,.16,.85,.32,.46,.3,.75,.71,.85,1.25,.06,.37,.05,.74-.05,1.1-.23,.84-.82,1.31-1.64,1.49-.62,.14-1.25,.15-1.88,.15-.17,0-.23-.06-.23-.24,0-.67,0-1.35,0-2.02h0Z"/>
      <path class="cls-20" d="M51.88,61.71c-.01,.85-.66,1.48-1.5,1.46-.82-.02-1.45-.69-1.44-1.54,.01-.82,.71-1.49,1.52-1.47,.82,.02,1.44,.7,1.43,1.55Z"/>
      <path class="cls-20" d="M58.16,61.68c.07,.73-.56,1.52-1.45,1.5-.8-.02-1.43-.64-1.44-1.46-.01-.83,.64-1.54,1.43-1.56,.78-.02,1.45,.68,1.46,1.52Z"/>
    </g>
  </g>
</svg>