<?xml version="1.0" encoding="UTF-8"?>
<svg id="Layer_2" data-name="Layer 2" xmlns="http://www.w3.org/2000/svg" viewBox="0 0 147.54 72.28">
  <defs>
    <style>
      .cls-1, .cls-2 {
        fill: #f9f7d4;
      }

      .cls-2 {
        fill-rule: evenodd;
      }

      .cls-3 {
        fill: #fff;
        opacity: .53;
      }
    </style>
  </defs>
  <g id="Layer_1-2" data-name="Layer 1">
    <g>
      <polygon class="cls-1" points="102.18 52.99 102.18 1.44 114.34 1.44 114.34 23.88 131.36 1.44 146.01 1.44 126.57 25.96 147.54 52.99 132.68 52.99 114.34 29.24 114.34 52.99 102.18 52.99"/>
      <path class="cls-3" d="M67.18,43.98c-3.97-4.86-6.15-10.99-6.15-17.28,0-2.96,.47-5.87,1.4-8.65v-.02s-5.36-2.22-5.36-2.22l-9.98,4.04-4.09,8.27v14.19h20.1v10.8h18.19c-5.5-1.48-10.47-4.68-14.1-9.13Z"/>
      <polygon class="cls-2" points="37.95 62.33 37.95 72.09 45.09 72.09 45.09 71.12 39.07 71.12 39.07 67.54 44.53 67.54 44.53 66.57 39.07 66.57 39.07 63.3 44.86 63.3 44.86 62.33 37.95 62.33"/>
      <polygon class="cls-2" points="56.08 65.03 58.75 72.09 59.85 72.09 62.53 65.03 61.33 65.03 59.31 70.72 57.28 65.03 56.08 65.03"/>
      <path class="cls-2" d="M76.7,64.83c-1.02,0-1.83,.37-2.43,1.11-.6,.7-.89,1.57-.89,2.61,0,1.15,.3,2.05,.93,2.73,.6,.66,1.42,1,2.43,1,.92,0,1.67-.27,2.25-.79,.48-.44,.79-.98,.96-1.67h-1.09c-.18,.49-.41,.86-.71,1.11-.36,.29-.83,.44-1.41,.44-.67,0-1.2-.22-1.58-.66-.38-.44-.59-1.05-.64-1.84h5.57c-.03-1.23-.3-2.2-.82-2.88-.57-.76-1.43-1.15-2.57-1.15h0Zm.03,.92c1.34,0,2.09,.75,2.23,2.27h-4.41c.07-.7,.29-1.24,.67-1.65,.38-.41,.89-.61,1.52-.61Z"/>
      <path class="cls-2" d="M95.03,64.83c-.46,0-.89,.11-1.27,.33-.38,.2-.7,.51-.94,.9v-1.04h-1.09v7.06h1.09v-4.26c.04-.64,.25-1.15,.63-1.53,.36-.36,.78-.53,1.27-.53,1.23,0,1.86,.68,1.86,2.06v4.26h1.09v-4.34c0-1.94-.89-2.91-2.64-2.91Z"/>
      <path class="cls-2" d="M111.59,62.74l-1.08,.45v1.83h-1.42v.92h1.42v4.49c0,.53,.11,.93,.34,1.2,.25,.3,.67,.45,1.24,.45h1.07v-.92h-.9c-.25,0-.42-.07-.52-.18-.11-.11-.15-.3-.15-.56v-4.49h1.75v-.92h-1.75v-2.28Z"/>
      <polygon class="cls-1" points="63.3 11.83 56.84 14.45 50.96 12.01 47.12 10.43 47.12 19.14 47.51 18.98 57.07 15.11 62.94 17.54 66.78 19.14 66.78 19.03 66.78 10.44 66.78 10.42 63.3 11.83"/>
      <rect class="cls-1" x="55.5" y="25.45" width="2.91" height="2.91" transform="translate(-2.35 48.15) rotate(-45)"/>
      <rect class="cls-1" x="55.5" y="35.04" width="2.91" height="2.91" transform="translate(-9.12 50.96) rotate(-45)"/>
      <polygon class="cls-3" points="51.25 11.44 52.92 12.13 56.35 1.11 51.25 11.44"/>
      <polygon class="cls-3" points="63.02 11.25 57.63 .1 57.57 .1 61 12.07 63.02 11.25"/>
      <polygon class="cls-1" points="57.05 .32 53.35 12.17 56.84 13.61 60.56 12.1 57.19 .32 57.05 .32"/>
      <rect class="cls-1" x="55.82" y="44.94" width="2.27" height="2.27" transform="translate(-15.9 53.76) rotate(-45)"/>
      <path class="cls-1" d="M42.35,42.95V2.21h-11.01V6.63c1.64,2.07,2.47,4.72,2.47,7.87,0,2.69-.73,5-2.16,6.89-.09,.12-.19,.24-.31,.38v6.49c.48,.43,.92,.91,1.33,1.42,1.82,2.26,2.74,5.06,2.74,8.32,0,4.26-1.37,7.7-4.07,10.22v4.58h31.11v-9.84h-20.1Zm14.6,5.64l-2.51-2.51,2.51-2.51,2.51,2.51-2.51,2.51Z"/>
      <path class="cls-1" d="M31.93,30.28c-.28-.35-.59-.68-.9-1-1.58-1.55-3.6-2.6-6.11-3.17l-.23-.05-.07-1.11,.23-.08c2.7-.97,4.73-2.34,6.05-4.07,.05-.06,.09-.12,.14-.19,1.21-1.68,1.83-3.74,1.83-6.12,0-2.64-.62-4.87-1.83-6.67-.66-.98-1.5-1.84-2.51-2.57-2.94-2.1-7.39-3.17-13.23-3.17H0V52.34H13.33c7.02,0,12.37-1.24,15.91-3.67,.66-.45,1.25-.95,1.79-1.49,2.28-2.3,3.43-5.38,3.43-9.19,0-3.03-.85-5.62-2.53-7.71Z"/>
      <path class="cls-1" d="M67.75,9.74v10.83l-4.82-2c-.84,2.62-1.26,5.35-1.26,8.12,0,6.14,2.13,12.13,6.01,16.87,3.82,4.68,9.16,7.95,15.02,9.22,1.86,.4,3.76,.61,5.67,.61,4.4,0,8.76-1.1,12.63-3.18v-13.42c-3.06,3.82-7.71,6.07-12.63,6.07-8.92,0-16.18-7.26-16.18-16.18s7.26-16.18,16.18-16.18c4.92,0,9.57,2.25,12.63,6.07V3.18c-3.86-2.08-8.22-3.18-12.63-3.18-8.01,0-15.52,3.55-20.62,9.74Z"/>
    </g>
  </g>
</svg>