<?xml version="1.0" encoding="UTF-8"?>
<svg id="Layer_2" data-name="Layer 2" xmlns="http://www.w3.org/2000/svg" viewBox="0 0 103.34 83.81">
  <defs>
    <style>
      .cls-1 {
        fill: #faad1c;
      }

      .cls-2 {
        fill: #f9f7d4;
      }

      .cls-3 {
        fill: #fde4b2;
      }

      .cls-4 {
        fill: #7d6744;
      }
    </style>
  </defs>
  <g id="Layer_1-2" data-name="Layer 1">
    <g>
      <path class="cls-2" d="M45.27,62.49s.05,.05,.08,.05c.85,.06,1.66,.26,2.46,.55,.78,.29,1.51,.69,2.19,1.17,.68,.48,1.27,1.05,1.84,1.65,.47,.49,.86,1.04,1.21,1.62,.18,.29,.35,.59,.49,.9,.37,.78,.66,1.58,.8,2.44,.07,.39,.11,.78,.17,1.17,.08,.49,.02,.98,.04,1.47,.02,.51-.04,1.01-.12,1.52-.09,.65-.25,1.28-.47,1.9-.34,.97-.82,1.86-1.43,2.69-.44,.6-.95,1.14-1.49,1.64-.52,.48-1.09,.89-1.7,1.25-.61,.35-1.24,.64-1.91,.85-.44,.14-.89,.23-1.34,.32-.89,.17-1.78,.14-2.68,.12-.43,0-.86-.1-1.28-.18-.5-.1-.99-.23-1.47-.4-.88-.32-1.69-.76-2.44-1.32-.32-.24-.63-.51-.92-.79-.67-.63-1.25-1.33-1.75-2.1-.54-.83-.95-1.74-1.22-2.69-.15-.51-.26-1.02-.32-1.55-.04-.33-.08-.66-.08-1,0-.24-.05-.49-.03-.73,.02-.49,.05-.97,.11-1.45,.09-.69,.25-1.37,.47-2.03,.26-.78,.62-1.52,1.06-2.22,.28-.45,.59-.88,.95-1.27,.28-.31,.56-.62,.87-.91,.52-.47,1.08-.88,1.68-1.23,.69-.4,1.41-.74,2.17-.98,.53-.17,1.07-.3,1.63-.36,.13-.01,.26-.03,.39-.05,.03,0,.06-.03,.09-.05,.65,0,1.29,0,1.94,0Zm-1.03,3.78c-.41-.01-.81,0-1.21,.08-.48,.09-.95,.22-1.4,.42-.88,.4-1.63,.97-2.25,1.71-.43,.51-.78,1.05-1.05,1.65-.35,.78-.52,1.6-.58,2.45-.05,.72-.02,1.44,.12,2.15,.15,.78,.41,1.51,.82,2.18,.39,.63,.88,1.18,1.46,1.65,.52,.41,1.07,.76,1.68,1.01,.72,.3,1.47,.47,2.26,.46,.21,0,.42,.01,.63,0,.29-.02,.58-.05,.87-.1,.62-.13,1.22-.34,1.77-.67,.34-.2,.68-.42,.97-.69,.39-.36,.78-.73,1.09-1.16,.37-.52,.69-1.06,.9-1.67,.19-.54,.34-1.09,.38-1.66,.02-.32,.06-.64,.08-.96,0-.12-.04-.25-.04-.37,0-.5-.08-.98-.21-1.46-.15-.57-.35-1.11-.64-1.63-.33-.58-.74-1.1-1.2-1.58-.17-.17-.37-.32-.55-.48-.67-.56-1.43-.94-2.27-1.16-.47-.12-.94-.2-1.43-.18-.07,0-.14,0-.21,0Z"/>
      <path class="cls-2" d="M6.82,62.49c.14,.02,.27,.05,.41,.07,1.13,.16,2.12,.62,3,1.33,.66,.54,1.25,1.15,1.8,1.8,.02,.03,.04,.06,.07,.1-.92,.84-1.83,1.67-2.76,2.52-.06-.07-.1-.12-.14-.18-.32-.43-.67-.84-1.09-1.19-.43-.35-.9-.63-1.46-.7-.61-.08-1.17,.03-1.63,.48-.35,.34-.45,.75-.33,1.21,.08,.29,.22,.55,.44,.76,.52,.51,1.04,1.02,1.58,1.51,.98,.88,1.99,1.73,2.98,2.6,.62,.54,1.18,1.14,1.67,1.8,.93,1.26,1.24,2.67,1.08,4.21-.25,2.46-2.14,4.41-4.62,4.85-1.25,.22-2.49,.17-3.7-.23-1.09-.36-1.98-1.01-2.72-1.88-.54-.63-.97-1.32-1.34-2.06-.01-.02-.02-.05-.03-.1,1.04-.64,2.08-1.28,3.13-1.93,.05,.08,.09,.15,.13,.22,.32,.57,.69,1.11,1.16,1.56,.41,.39,.86,.7,1.42,.82,.9,.2,1.72,.02,2.38-.65,.49-.5,.63-1.09,.43-1.76-.13-.44-.37-.82-.68-1.14-.42-.43-.86-.85-1.31-1.25-.89-.79-1.8-1.56-2.69-2.36-.64-.58-1.24-1.19-1.78-1.87-.56-.71-.99-1.49-1.17-2.37-.36-1.71,.07-3.22,1.28-4.49,.92-.97,2.06-1.51,3.39-1.64,.07,0,.14-.03,.2-.04,.29,0,.59,0,.88,0Z"/>
      <path class="cls-2" d="M16.11,63.02h3.76c0,.09,.01,.18,.01,.27,0,2.35,0,4.71,0,7.06,0,.1,0,.19,.01,.3h6.64c0-.11,.01-.21,.01-.32,0-2.34,0-4.68,0-7.02,0-.09,0-.18,0-.26,.17-.05,3.42-.07,3.76-.03,0,0,.01,0,.02,.02,0,0,.01,.01,.01,.02,0,.04,.01,.08,.01,.12,0,6.68,0,13.35,0,20.03,0,.02-.01,.04-.02,.07h-3.76c0-.1-.02-.19-.02-.29,0-2.75,0-5.51,0-8.26v-.3c-.17-.05-6.4-.07-6.67-.02,0,.48,0,.97,0,1.46,0,.5,0,.99,0,1.49,0,.49,0,.98,0,1.47,0,.49,0,.98,0,1.47,0,.5,0,.99,0,1.49,0,.49,0,.98,0,1.46-.18,.05-3.55,.05-3.78,.01-.05-.18-.05-20.06,0-20.25Z"/>
      <path class="cls-2" d="M89.38,63.01c.09,0,.17,0,.24,0,1.35,0,2.69,0,4.04,0,1.04,0,2.07,.06,3.1,.24,2.18,.37,3.51,1.68,4.13,3.74,.35,1.18,.35,2.38,.07,3.57-.33,1.37-1.12,2.42-2.33,3.13-.33,.2-.69,.34-1.04,.51-.06,.03-.12,.05-.21,.09,.53,1.01,1.04,2,1.56,2.99,.52,.99,1.04,1.99,1.56,2.98,.52,.99,1.04,1.98,1.57,3h-4.1c-.03-.06-.07-.12-.1-.18-1.42-2.71-2.83-5.43-4.25-8.14q-.14-.27-.49-.21c-.01,.47,0,.94,0,1.41,0,.47,0,.94,0,1.41,0,.48,0,.95,0,1.43,0,.48,0,.95,0,1.43,0,.47,0,.94,0,1.41,0,.48,0,.95,0,1.42-.17,.05-3.48,.06-3.74,.02v-20.26Zm3.76,7.92s.07,.02,.1,.02c.72-.02,1.44-.02,2.16-.05,.36-.02,.72-.1,1.06-.24,.5-.2,.81-.56,.96-1.07,.09-.31,.1-.63,.08-.96-.06-.81-.62-1.49-1.41-1.69-.24-.06-.5-.11-.74-.12-.68-.03-1.36-.03-2.04-.05-.05,0-.11,.01-.17,.02v4.14Z"/>
      <path class="cls-2" d="M58.13,63.02c.09,0,.15,0,.22,0,1.72,0,3.44,0,5.16,0,.29,0,.58,.05,.87,.08,.26,.03,.53,.06,.79,.09,.54,.07,1.07,.19,1.58,.38,.65,.25,1.21,.64,1.69,1.13,.27,.28,.5,.6,.7,.94,.38,.64,.59,1.33,.72,2.06,.11,.64,.1,1.29,.06,1.92-.05,.81-.27,1.59-.69,2.3-.15,.26-.34,.49-.52,.73-.41,.54-.95,.92-1.52,1.26-.5,.29-1.05,.49-1.62,.6-.33,.06-.67,.09-1.01,.13-.8,.11-1.61,.08-2.41,.08-.06,0-.11,0-.19,.01,0,.09-.01,.18-.01,.27,0,1.69,0,3.39,0,5.08v3.24h-3.8v-20.3Zm3.81,7.94c.1,0,.18,0,.25,0,.54-.01,1.08-.03,1.61-.04,.36,0,.72-.04,1.07-.13,.57-.14,.99-.48,1.22-1.02,.2-.47,.21-.97,.09-1.45-.14-.58-.49-.98-1.05-1.22-.44-.19-.9-.24-1.36-.27-.55-.03-1.11,0-1.66,0-.06,0-.12,.01-.19,.02v4.12Z"/>
      <path class="cls-2" d="M84.79,83.29h-3.67c-.05-.17-.05-20.05,0-20.26h3.67c.05,.17,.05,20.03,0,20.26Z"/>
      <path class="cls-2" d="M75.54,81.51c0,1-.65,1.87-1.59,2.1-1.48,.36-2.58-.82-2.62-1.93-.03-.67,.15-1.25,.64-1.71,.65-.62,1.41-.78,2.23-.45,.82,.33,1.27,.98,1.34,1.87,0,.04,0,.08,0,.13Z"/>
      <path class="cls-2" d="M40.16,37.84c-.2,.05-.4-.02-.6-.02-11.67,0-23.34,0-35.01,0-.4,0-.78-.07-1.17-.19-.45-.14-.87-.33-1.25-.59-.37-.25-.7-.54-.99-.89-.24-.29-.44-.61-.61-.94-.09-.16-.18-.33-.21-.52-.02-.12-.08-.24-.13-.35-.04-.1-.07-.21-.07-.32,0-.12-.03-.25-.05-.37,0-.02-.04-.03-.06-.05,0-.35,0-.7,0-1.05,.03,0,.07,0,.07-.03,0-.1,.05-.19,.04-.29,0-.2,.07-.38,.13-.56,.08-.25,.17-.48,.28-.71,.14-.29,.31-.57,.52-.82,.16-.19,.31-.37,.49-.54,.28-.27,.61-.49,.94-.68,.27-.15,.55-.28,.84-.37,.35-.1,.7-.2,1.08-.2,10.45,0,20.9,0,31.35,0,.28,0,.56,.01,.84-.02,.16-.07,.32,0,.48,0,2.2,0,4.39,0,6.59,0,2.32,0,4.29,1.6,4.73,3.87,.31,1.62-.15,3.04-1.27,4.22-.91,.96-2.06,1.43-3.39,1.43-1.19,0-2.37-.01-3.56,0Z"/>
      <path class="cls-2" d="M103.34,37.35c-.05-.2,0-.41-.03-.62,0,0,0-.01-.01-.02,.03-.05,.01-.11,.01-.16,0-.71-.14-1.41-.29-2.1-.16-.72-.33-1.45-.55-2.16-.33-1.07-.76-2.1-1.32-3.08-.45-.79-.97-1.53-1.54-2.23-.84-1.03-1.79-1.96-2.88-2.73-.13-.09-.14-.17-.03-.28,.53-.55,.94-1.18,1.37-1.81,.6-.88,1.05-1.84,1.35-2.86,.23-.79,.42-1.58,.57-2.39,.12-.61,.15-1.22,.18-1.84,.02-.56,.02-1.12-.03-1.68-.06-.64-.16-1.26-.31-1.88-.09-.37-.18-.74-.27-1.1-.22-.86-.55-1.68-.95-2.46-.31-.59-.7-1.13-1.08-1.68-.66-.94-1.44-1.76-2.28-2.53-.68-.62-1.45-1.13-2.22-1.63-1.38-.91-2.91-1.41-4.5-1.75-.66-.14-1.33-.27-2-.37H26.07c-.13,.08-.28,.07-.41,.11-.31,.08-.61,.2-.9,.34-.44,.21-.83,.48-1.18,.81-.25,.24-.5,.5-.69,.8-.13,.21-.25,.43-.37,.65-.12,.22-.17,.47-.25,.7-.07,.2-.09,.4-.13,.61-.06,.33-.05,.67-.04,1,.01,.26,.03,.53,.1,.78,.09,.33,.2,.67,.34,.98,.12,.26,.28,.5,.45,.74,.28,.37,.59,.7,.95,.98,.4,.31,.83,.56,1.31,.72,.14,.05,.3,.08,.44,.12,.34,.11,.7,.14,1.05,.14,7.12,0,14.25,0,21.37,0,.08,0,.15,.01,.23-.02,.1-.11,.07-.25,.07-.38,0-2.86,0-5.72,0-8.58,0-.11-.02-.22,.03-.33,.07-.09,.18-.07,.27-.07,3.52,0,7.05,0,10.57,0,.1,0,.2,0,.29,.03,.41,.02,.82,.06,1.23,.06,.5,0,1,.03,1.51,.07,.13,0,.27,.04,.38-.05,0,0,0,0,0,0,.06,.08,.16,.09,.25,.09,.36,0,.73,.05,1.09,.08,1.07,.09,2.13,.23,3.18,.45,1.8,.37,3.54,.93,5.15,1.83,1.58,.88,2.96,2,4.1,3.4,.77,.95,1.41,1.99,1.89,3.12,.06,.13,.1,.28,.27,.33,.12,.03,.24,.02,.36,.02,2.16,.03,4.32-.05,6.48,.04,.59,.02,1.15,.1,1.7,.35,1.07,.48,1.97,1.15,2.51,2.23,.22,.45,.45,.89,.56,1.38,.13,.54,.16,1.09,.14,1.65-.03,.91-.23,1.77-.72,2.54-.5,.78-1.19,1.36-1.99,1.8-.44,.24-.9,.48-1.4,.58-.63,.12-1.28,.19-1.92,.19-.76,0-1.52,0-2.27,0-.29,0-.33,.04-.33,.33,0,2.78,0,5.56,0,8.34,0,.32,.06,.38,.38,.38,.07,0,.14,0,.21,0,1.03,.02,2.06-.05,3.09,.04,.89,.08,1.75,.24,2.58,.58,1.12,.46,2.16,1.03,3.04,1.89,.39,.38,.79,.77,1.08,1.23,.64,1.03,1.15,2.11,1.31,3.34,.05,.4,.11,.79,.11,1.19,0,.43,0,.87,0,1.31,0,.62-.1,1.21-.3,1.79-.36,1-.84,1.92-1.53,2.74-.89,1.07-1.93,1.95-3.23,2.51-.49,.21-.98,.43-1.51,.51-.69,.11-1.39,.17-2.1,.14-.76-.03-1.53-.06-2.26-.33-.06-.02-.12-.04-.19-.03-.14,.02-.18,.12-.23,.23-.44,1.01-.98,1.95-1.61,2.85-.87,1.25-1.87,2.38-3.06,3.33-.43,.34-.87,.66-1.33,.96-.08,.06-.19,.1-.16,.24,.04,.09,.12,.13,.2,.18,.64,.37,1.3,.7,1.98,.98,.96,.39,1.96,.63,2.96,.88,1.04,.26,2.09,.41,3.16,.47,1.14,.06,2.29,0,3.42-.19,.49-.08,.98-.19,1.46-.3,.9-.21,1.8-.44,2.66-.77,1.58-.6,3-1.5,4.33-2.52,1.29-.99,2.44-2.12,3.42-3.43,.72-.96,1.4-1.95,1.95-3.02,.27-.53,.51-1.08,.71-1.64,.25-.73,.44-1.47,.63-2.22,.23-.94,.41-1.87,.37-2.84,0-.07-.02-.14,.02-.2v-1.85Zm-.27-1.82s0-.02,0-.03c0,0,.02,0,.03,0,0,0-.01,.01-.02,.02Zm-3.09-22.09s0-.04-.01-.06c.02,0,.04,0,.04,.03-.01,.01-.02,.02-.03,.03Z"/>
      <path class="cls-2" d="M12.21,56.43c-.06-.05-.13-.04-.2-.05-1.87-.34-3.37-1.77-3.78-3.61-.49-2.2,.58-4.41,2.63-5.34,1.1-.5,2.24-.54,3.41-.2,1.54,.45,2.92,1.94,3.21,3.73,.4,2.49-1.26,4.98-3.89,5.42-.05,0-.11,0-.16,.05h-1.22Z"/>
      <path class="cls-3" d="M65.82,56.38s0,.03,0,.05H25.35s0-.03,0-.04c.06-.06,.14-.06,.21-.07,.08,0,.17,0,.25,0,13.18,0,26.37,0,39.55,0,.15,0,.31-.04,.45,.06Z"/>
      <path class="cls-2" d="M37.29,18.84c-.1,.06-.21,.04-.31,.04-.95,.06-1.81,.39-2.57,.96-.55,.42-.99,.94-1.31,1.56-.24,.47-.41,.96-.49,1.48-.04,.25-.06,.51-.06,.77-.32,.05-.62-.04-.93-.09-.41-.06-.78-.23-1.16-.4-.31-.13-.57-.34-.84-.54-.17-.13-.32-.27-.46-.42-.23-.24-.43-.5-.6-.79-.17-.28-.32-.56-.42-.87-.1-.31-.21-.62-.24-.96-.02-.29-.04-.57-.03-.86,.01-.39,.07-.77,.18-1.15,.13-.45,.33-.87,.57-1.26,.1-.17,.22-.34,.37-.48,.1-.09,.15-.22,.25-.3,.31-.26,.62-.52,.98-.73,.33-.19,.68-.33,1.03-.43,.28-.09,.57-.16,.87-.17,.12,0,.24-.05,.37-.04,.39,0,.77,.07,1.16,.14,.37,.08,.72,.21,1.06,.37,.31,.15,.62,.34,.87,.58,.09,.08,.2,.13,.28,.22,.34,.39,.68,.79,.92,1.26,.21,.42,.37,.86,.45,1.31,.05,.26,.1,.52,.06,.79Z"/>
      <path class="cls-2" d="M52.67,14.17c.06,.24,0,.47-.03,.71-.07,.43-.18,.84-.37,1.24-.3,.63-.69,1.19-1.24,1.64-.4,.33-.82,.6-1.3,.79-.52,.21-1.06,.33-1.63,.33-2.29,0-4.59,0-6.88,0-.1,0-.2,.01-.29-.04-.02-.1-.03-.2,.01-.31,.05-.11,.01-.23,.04-.35,.03-.19,.08-.37,.12-.55,.04-.2,.11-.4,.2-.59,.13-.31,.28-.61,.48-.87,.27-.36,.55-.7,.91-.97,.33-.25,.66-.47,1.04-.64,.38-.17,.77-.28,1.17-.35,.44-.07,.88-.09,1.33-.09,1.33,0,2.65-.03,3.98,.01,.82,.03,1.64,0,2.45,.04Z"/>
      <path class="cls-2" d="M44.14,42.63c0,.64-.14,1.24-.4,1.83-.3,.67-.74,1.23-1.3,1.71-.35,.3-.74,.52-1.16,.71-.46,.2-.94,.31-1.43,.37-.06,0-.11,0-.17,0-3.47,0-6.95,0-10.42,0-.08,0-.17,0-.25-.01-.03-.27,.05-.52,.09-.78,.05-.42,.21-.8,.38-1.18,.14-.3,.32-.58,.53-.84,.21-.27,.45-.51,.71-.74,.2-.18,.44-.34,.68-.46,.32-.16,.63-.33,.98-.42,.32-.08,.63-.14,.96-.18,.49-.05,.98-.03,1.47-.03,3.02,0,6.04,0,9.07,0,.09,0,.18-.03,.26,.04Z"/>
      <path class="cls-3" d="M25.1,56.35c.08,.01,.18-.04,.25,.04-.08-.01-.18,.03-.25-.04Z"/>
      <path class="cls-4" d="M59.59,32.21c-3.67,0-7.34,0-11.01,0-.08,0-.15,0-.23,0,.01-.03,.03-.05,.06-.05,.06,0,.11,0,.17,0,3.59,0,7.18,0,10.77,0,.08,0,.17-.03,.24,.04Z"/>
      <path class="cls-1" d="M83.65,39c0-.29-.03-.57-.07-.86-.11-.88-.24-1.75-.46-2.61-.16-.59-.35-1.17-.57-1.73-.19-.48-.4-.95-.66-1.4-.37-.64-.74-1.29-1.2-1.87-.97-1.24-2.12-2.3-3.41-3.19-1.02-.7-2.08-1.33-3.2-1.86-.07-.03-.15-.05-.19-.12,.82-.65,1.61-1.33,2.33-2.09,.91-.98,1.68-2.05,2.23-3.27,.42-.91,.72-1.87,.9-2.86,.15-.83,.2-1.67,.22-2.51,.01-.51-.06-1.01-.08-1.51-.01-.52-.13-1.02-.22-1.52-.14-.73-.37-1.44-.66-2.12-.05-.06-.09-.11-.12-.18-.21-.49-.44-.97-.71-1.43-.57-1-1.26-1.89-2.05-2.72-.45-.48-.95-.91-1.47-1.31-.7-.54-1.44-1.01-2.22-1.42-.88-.46-1.79-.82-2.73-1.11-.53-.17-1.07-.31-1.61-.43-.54-.12-1.08-.21-1.62-.3-.66-.1-1.33-.18-2-.24-.45-.04-.91-.08-1.36-.11-.75-.04-1.49-.08-2.24-.1-.29,0-.59-.02-.88-.03-.06-.04-.12-.02-.19-.02-3.62,0-7.25,0-10.87,0-.06,0-.13-.02-.18,.02,0,.11,0,.21,0,.32,0,3.02,0,6.04,0,9.06,.13,.02,.26,.03,.39,.06,.23,.05,.46,.09,.69,.17,.22,.08,.44,.17,.65,.27,.53,.25,.96,.61,1.37,1.01,.11,.11,.19,.26,.3,.38,.26,.3,.43,.65,.59,1,.12,.26,.21,.54,.27,.83,.05,.28,.09,.56,.12,.85,0,.05,.02,.11-.05,.15-.05,.05-.04,.12-.05,.18-.08,1.4-.63,2.56-1.72,3.45-.8,.64-1.71,1.01-2.75,1.01-2.33,0-4.66,0-6.99,0-.08,0-.16-.01-.23,.03-.07,.05-.15,.03-.22,.03-1.07,0-2.14,0-3.21,0-.08,0-.15,.02-.22-.03-.05-.04-.11-.03-.16-.03-.46,.04-.92,.11-1.36,.26-1.83,.62-3.16,2.3-3.27,4.28,0,.1-.03,.21,.05,.3,.06,.07,.03,.16,.03,.24,0,.19,0,.39,.04,.58,.05,.19,.11,.39,.14,.58,.03,.17,.14,.33,.2,.5,.04,.12,.1,.23,.16,.33,.11,.19,.22,.38,.37,.55,.14,.16,.26,.34,.41,.5,.45,.47,.98,.82,1.58,1.08,.17,.07,.35,.15,.53,.18,.19,.03,.37,.1,.57,.12,.12,.03,.23,.05,.35,.05,2.16,0,4.32,0,6.48,0,.36,0,.72,.02,1.09,.08,.84,.14,1.58,.49,2.23,1.04,.54,.45,.96,1.01,1.26,1.66,.27,.59,.41,1.22,.43,1.86,.02,.38-.04,.77-.13,1.14-.26,1.02-.78,1.88-1.59,2.55-.66,.54-1.4,.88-2.24,1.02-.38,.07-.77,.06-1.15,.06-.98,0-1.95,0-2.93,0-.08,0-.17-.04-.23,.06,.01,.05,.05,.06,.09,.06,.13,0,.26,.04,.39,.07,.31,.07,.6,.2,.89,.34,.19,.09,.38,.18,.54,.3,.33,.26,.66,.51,.94,.83,.37,.42,.64,.9,.85,1.41,.19,.47,.26,.98,.31,1.48,0,.09,.03,.2-.02,.29-.07,.06-.06,.14-.07,.21-.03,.22-.04,.45-.09,.67-.21,.92-.64,1.71-1.32,2.37-.89,.86-1.94,1.3-3.17,1.31-3.41,.01-6.82,0-10.23,0-.08,0-.17-.01-.25,.04-.08,.05-.16,.03-.25,.03-1.14,0-2.27,0-3.41,0-.07,0-.14,0-.21,.01-.32,.07-.64,.16-.96,.27-.57,.21-1.06,.54-1.5,.95-.37,.34-.66,.75-.89,1.2-.15,.29-.27,.59-.37,.9-.11,.37-.16,.75-.14,1.13,0,.12,0,.24,0,.36-.01,.25,.02,.5,.08,.74,.08,.32,.17,.63,.31,.92,.14,.29,.31,.58,.51,.83,.23,.29,.48,.58,.77,.81,.53,.42,1.12,.72,1.78,.89,.12,.03,.24-.01,.35,.06,.08,.05,.18-.01,.25,.04h0c.06,0,.13,0,.19,0,13.32,0,26.64,0,39.96,0,.11,0,.21,0,.32,0,.31-.07,.62-.04,.93-.06,.51-.03,1.03-.07,1.54-.13,.44-.05,.88-.1,1.32-.17,.53-.08,1.06-.18,1.59-.3,.61-.13,1.21-.3,1.8-.5,.37-.12,.73-.26,1.08-.41,.59-.26,1.17-.54,1.72-.88,.08-.05,.16-.14,.28-.12,.05-.08,.13-.12,.21-.17,.78-.5,1.5-1.07,2.17-1.7,.63-.59,1.21-1.24,1.73-1.94,.69-.91,1.3-1.88,1.8-2.91,.13-.28,.24-.56,.39-.83,.2-.25,.26-.57,.36-.87,.25-.7,.44-1.42,.58-2.15,.11-.59,.19-1.19,.26-1.79,.1-.82,.02-1.64,.04-2.46ZM59.12,10.5c0-.17,0-.18,.17-.18,.35,0,.7,0,1.05,0,.44,0,.87,.01,1.31,0,.5-.02,1.01,.04,1.51,.05,.3,0,.59,.08,.89,.12,.41,.06,.81,.17,1.21,.29,.5,.15,.98,.36,1.42,.64,.34,.21,.66,.46,.94,.75,.24,.25,.45,.51,.63,.8,.16,.25,.32,.5,.39,.79,.03,.11,.12,.2,.14,.3,.08,.36,.23,.71,.23,1.1,0,.17,.03,.36,.06,.54,.04,.21,.04,.44,0,.65-.04,.21-.02,.43-.06,.64-.03,.17-.03,.34-.08,.51-.09,.31-.15,.63-.28,.93-.14,.34-.29,.67-.5,.97-.31,.44-.65,.85-1.09,1.19-.39,.3-.8,.57-1.25,.77-.44,.19-.89,.34-1.36,.45-.41,.1-.83,.16-1.25,.22-.49,.07-.97,.08-1.46,.08-.79,0-1.57,0-2.36,0-.06,0-.11,0-.17,0-.07,0-.11-.02-.1-.1,0-.06,0-.13,0-.19,0-1.87,0-3.73,0-5.6s0-3.72,0-5.58c0-.05,0-.1,0-.15Zm13.89,29.48c-.04,.44-.07,.88-.18,1.32-.1,.39-.23,.76-.39,1.12-.19,.42-.43,.8-.75,1.14-.14,.15-.28,.31-.43,.45-.18,.18-.39,.33-.6,.48-.54,.39-1.16,.62-1.78,.84-.45,.15-.92,.27-1.39,.36-.41,.08-.83,.16-1.25,.19-.27,.02-.55,.06-.82,.11-.18,.03-.36,.05-.54,.04-.41,0-.81,.03-1.21,.06-1.43,.08-2.86,.01-4.29,.03-.29,0-.25,.03-.26-.26,0-2.31,0-4.62,0-6.93,0-2.3,0-4.6,0-6.9,0-.3-.03-.27,.27-.27,.73,0,1.46,.01,2.19,0,.55-.01,1.1,.03,1.66,.05,.38,.01,.77,.05,1.14,.09,.36,.04,.71,.09,1.07,.15,.45,.07,.89,.15,1.33,.26,.46,.11,.91,.25,1.36,.4,.37,.13,.73,.28,1.07,.46,.63,.32,1.21,.72,1.72,1.23,.35,.35,.68,.71,.96,1.12,.16,.23,.29,.49,.42,.74,.1,.21,.19,.42,.27,.63,.09,.26,.22,.52,.24,.82,.01,.21,.09,.42,.14,.63,0,.03,.02,.07,.02,.1,0,.52,.09,1.03,.04,1.55Z"/>
    </g>
  </g>
</svg>